<?xml version="1.0" encoding="UTF-8"?>
<svg id="Layer_1" data-name="Layer 1" xmlns="http://www.w3.org/2000/svg" viewBox="0 0 137.6 114.89">
  <defs>
    <style>
      .cls-1 {
        fill: #fbd044;
      }

      .cls-1, .cls-2 {
        stroke-width: 0px;
      }

      .cls-2 {
        fill: #004e50;
      }
    </style>
  </defs>
  <path class="cls-1" d="m0,38.92L63.52,1.56s12.45-6.23,23.66,6.23L22.42,46.39s-14.95,7.47-22.42-7.47Z"/>
  <path class="cls-2" d="m134.51,53.86l-57.29-33.63s-6.23-6.23,9.96-12.45l43.59,24.91s12.45,7.47,3.74,21.17Z"/>
  <path class="cls-2" d="m104.62,4.05h20.55l-.62,11.21s-1.25,7.47-9.65,8.36l-10.27-5.87V4.05Z"/>
  <polygon class="cls-2" points="42.34 114.89 42.34 39.54 99.63 38.92 99.63 53.86 60.09 53.86 59.78 70.06 95.9 70.06 95.9 87.49 60.09 87.49 60.09 114.89 42.34 114.89"/>
</svg>