<svg width="101" height="56" viewBox="0 0 101 56" fill="none" xmlns="http://www.w3.org/2000/svg">
<path d="M0 18.3871L30.0109 0.735863C30.0109 0.735863 35.8931 -2.20759 41.1894 3.67931L10.5926 21.9164C10.5926 21.9164 3.52931 25.4457 0 18.3871Z" fill="white"/>
<path d="M63.55 25.4457L36.4825 9.55677C36.4825 9.55677 33.5391 6.61332 41.1883 3.67459L61.783 15.4437C61.783 15.4437 67.6651 18.973 63.55 25.4457Z" fill="#FBD044"/>
<path d="M49.4297 1.9123H59.1388L58.8459 7.20862C58.8459 7.20862 58.2553 10.7379 54.2866 11.1584L49.4344 8.38506V1.9123H49.4297Z" fill="#FBD044"/>
<path d="M20.0039 54.2802V18.6801L47.0714 18.3871V25.4457H28.3901L28.2437 33.0997H45.3091V41.3347H28.3901V54.2802H20.0039Z" fill="#FBD044"/>
<path d="M50.7715 29.868H58.5766V55.5464H50.7715V29.868Z" fill="white"/>
<path d="M76.8466 55.8913C75.1646 55.8913 73.5394 55.5086 71.9661 54.748V55.5464H64.5059V29.868H71.9661V37.092C73.5016 36.2557 75.1127 35.8399 76.7946 35.8399C78.4766 35.8399 79.9507 36.0856 81.2216 36.5817C82.4926 37.0778 83.5792 37.7629 84.4864 38.6322C86.3621 40.4701 87.2975 42.823 87.2975 45.6908C87.2975 48.5587 86.3715 50.9824 84.5194 52.8959C82.606 54.8944 80.0499 55.8913 76.8419 55.8913H76.8466ZM76.7899 37.1628C74.9993 37.1628 73.3882 37.6589 71.9613 38.6511V53.203C73.5441 54.1007 75.3253 54.5448 77.2955 54.5448H77.7679C77.9144 54.5448 78.0514 54.5306 78.1837 54.507V37.2668C77.7254 37.1959 77.2577 37.1581 76.7852 37.1581L76.7899 37.1628Z" fill="white"/>
<path d="M95.7742 32.991C94.5269 32.991 93.5536 32.7122 92.8544 32.1547C92.1504 31.5972 91.8008 30.8649 91.8008 29.9578C91.8008 29.1971 92.1882 28.5404 92.963 27.997C93.7851 27.4159 94.6545 27.1277 95.5758 27.1277C96.4971 27.1277 97.2058 27.2175 97.7066 27.4017C98.2074 27.5813 98.6326 27.8175 98.987 28.1104C99.6862 28.701 100.041 29.3908 100.041 30.1798C100.041 30.9688 99.6437 31.6303 98.8452 32.1784C98.0468 32.7217 97.0262 32.9957 95.7789 32.9957L95.7742 32.991ZM91.9614 36.1659H99.7665V55.5464H91.9614V36.1659Z" fill="white"/>
</svg>
