<svg width="37" height="38" viewBox="0 0 37 38" fill="none" xmlns="http://www.w3.org/2000/svg">
<g clip-path="url(#clip0_68_211)">
<path d="M26.6492 16.3352C27.3785 17.0667 28.3343 17.4325 29.2917 17.4325C30.249 17.4325 31.2064 17.0667 31.9341 16.3352L34.7415 13.5153C36.1983 12.0207 37 10.032 37 7.91667C37 5.80133 36.1983 3.81425 34.7415 2.318C33.2861 0.823333 31.3498 0 29.2917 0C27.2335 0 25.2972 0.823333 23.8403 2.318C20.8341 5.4055 20.8341 10.4278 23.8465 13.5201L26.6477 16.3337L26.6492 16.3352ZM24.9318 3.43742C26.0973 2.242 27.6452 1.58333 29.2932 1.58333C30.9412 1.58333 32.4891 2.242 33.653 3.43742C34.8185 4.63283 35.4599 6.22408 35.4599 7.91667C35.4599 9.60925 34.8185 11.1989 33.6592 12.3896L30.858 15.2032C29.9947 16.0693 28.5902 16.0693 27.7284 15.2032L24.9334 12.3959C22.5284 9.92592 22.5284 5.90742 24.9334 3.439L24.9318 3.43742ZM37.0015 27.7083C37.0015 30.7642 34.5811 33.25 31.6057 33.25H19.2724C18.8469 33.25 18.5015 32.8953 18.5015 32.4583C18.5015 32.0213 18.8469 31.6667 19.2724 31.6667H31.6057C33.7301 31.6667 35.4599 29.8902 35.4599 27.7083C35.4599 25.5265 33.7301 23.75 31.6057 23.75H13.1057C10.1303 23.75 7.70987 21.2642 7.70987 18.2083C7.70987 15.1525 10.1303 12.6667 13.1057 12.6667H19.2724C19.6979 12.6667 20.0432 13.0213 20.0432 13.4583C20.0432 13.8953 19.6979 14.25 19.2724 14.25H13.1057C10.9813 14.25 9.25154 16.0265 9.25154 18.2083C9.25154 20.3902 10.9813 22.1667 13.1057 22.1667H31.6057C34.5811 22.1667 37.0015 24.6525 37.0015 27.7083ZM13.1057 28.5H11.1632L8.49612 25.08C8.06137 24.2598 7.22579 23.75 6.31621 23.75H5.85679C5.32337 23.75 4.82696 24.0192 4.52787 24.472C4.22879 24.9248 4.16712 25.498 4.36137 26.0078L5.31875 28.5H4.77608L3.37162 27.5104C2.4975 26.6079 0.891083 26.8232 0.269791 27.9252C-0.0863339 28.557 -0.0894172 29.3138 0.343791 30.0643L2.03346 32.1227C2.62083 32.8383 3.47954 33.2484 4.39067 33.2484H5.29871L4.35212 35.7485C4.15942 36.2567 4.22417 36.8299 4.52479 37.2796C4.82387 37.7292 5.32029 37.9984 5.85062 37.9984H6.34396C7.25354 37.9984 8.08912 37.4886 8.45296 36.7808L11.1678 33.2484H13.1072C14.3822 33.2484 15.4197 32.1828 15.4197 30.8734C15.4197 29.564 14.3822 28.4984 13.1072 28.4984L13.1057 28.5ZM13.1057 31.6667H10.7932C10.5573 31.6667 10.3353 31.7775 10.1873 31.9675L7.16875 35.9132C7.00379 36.2235 6.68775 36.4167 6.34242 36.4167L5.78742 36.3232L7.14254 32.7449C7.23504 32.5011 7.20421 32.2272 7.06083 32.0118C6.91746 31.7965 6.6785 31.6667 6.42412 31.6667H4.38912C3.93433 31.6667 3.50421 31.4608 3.21129 31.1046L1.60179 29.1618C1.49079 28.9623 1.56633 28.7866 1.60179 28.7217C1.63879 28.6552 1.75133 28.5 1.97487 28.5C2.0905 28.5 2.19842 28.5459 2.38496 28.7201L4.09621 29.9408C4.22417 30.0327 4.37833 30.0817 4.53558 30.0817H6.44879C6.70471 30.0817 6.94212 29.9519 7.08704 29.735C7.23042 29.5181 7.25971 29.2426 7.16721 28.9987L5.85525 25.3317H6.31467C6.66 25.3317 6.97604 25.5249 7.215 25.9508L10.1889 29.7841C10.3353 29.9725 10.5573 30.0817 10.7917 30.0817H13.1042C13.5297 30.0817 13.875 30.4364 13.875 30.8734C13.875 31.3104 13.5297 31.6651 13.1042 31.6651L13.1057 31.6667ZM30.8364 7.57942C30.8364 8.45342 30.1457 9.16275 29.2947 9.16275C28.4437 9.16275 27.7531 8.45342 27.7531 7.57942C27.7531 6.70542 28.4437 5.99608 29.2947 5.99608C30.1457 5.99608 30.8364 6.70542 30.8364 7.57942Z" fill="#004E50"/>
</g>
<defs>
<clipPath id="clip0_68_211">
<rect width="37" height="38" fill="white"/>
</clipPath>
</defs>
</svg>
