<svg width="33" height="33" viewBox="0 0 33 33" fill="none" xmlns="http://www.w3.org/2000/svg">
<g clip-path="url(#clip0_68_184)">
<path d="M19.593 13.5248H12.9263C11.8237 13.5248 10.9263 14.4222 10.9263 15.5248V22.1915C10.9263 23.2942 11.8237 24.1915 12.9263 24.1915H19.593C20.6957 24.1915 21.593 23.2942 21.593 22.1915V15.5248C21.593 14.4222 20.6957 13.5248 19.593 13.5248ZM20.2597 22.1915C20.2597 22.5582 19.961 22.8582 19.593 22.8582H12.9263C12.5583 22.8582 12.2597 22.5582 12.2597 22.1915V15.5248C12.2597 15.1582 12.5583 14.8582 12.9263 14.8582H19.593C19.961 14.8582 20.2597 15.1582 20.2597 15.5248V22.1915ZM29.6157 7.96618L28.2597 7.05151V2.19151C28.2597 1.82351 27.961 1.52485 27.593 1.52485C27.225 1.52485 26.9263 1.82351 26.9263 2.19151V6.15151L19.6157 1.21951C17.5783 -0.156488 14.9437 -0.157822 12.9037 1.21951L2.90367 7.96618C1.24767 9.08351 0.259674 10.9422 0.259674 12.9382V26.1902C0.259674 29.4982 2.95167 32.1902 6.25967 32.1902H26.2597C29.5677 32.1902 32.2597 29.4982 32.2597 26.1902V12.9395C32.2597 10.9435 31.2717 9.08218 29.6157 7.96618ZM30.9263 26.1915C30.9263 28.7648 28.833 30.8582 26.2597 30.8582H6.25967C3.68634 30.8582 1.59301 28.7648 1.59301 26.1915V12.9395C1.59301 11.3875 2.36234 9.94085 3.64901 9.07151L13.649 2.32351C14.4423 1.78885 15.3503 1.52085 16.2597 1.52085C17.169 1.52085 18.077 1.78751 18.8703 2.32351L28.8703 9.07151C30.1583 9.94085 30.9263 11.3875 30.9263 12.9395V26.1915Z" fill="#004E50"/>
</g>
<defs>
<clipPath id="clip0_68_184">
<rect width="32" height="32" fill="white" transform="translate(0.259674 0.191406)"/>
</clipPath>
</defs>
</svg>
