<svg width="33" height="34" viewBox="0 0 33 34" fill="none" xmlns="http://www.w3.org/2000/svg">
<path d="M26.8125 7.08341H22V4.95841C22 3.00625 20.4586 1.41675 18.5625 1.41675H14.4375C12.5414 1.41675 11 3.00625 11 4.95841V7.08341H6.1875C2.77612 7.08341 0 9.94366 0 13.4584V26.2084C0 29.7232 2.77612 32.5834 6.1875 32.5834H26.8125C30.2239 32.5834 33 29.7232 33 26.2084V13.4584C33 9.94366 30.2239 7.08341 26.8125 7.08341ZM12.375 4.95841C12.375 3.78683 13.3004 2.83341 14.4375 2.83341H18.5625C19.6996 2.83341 20.625 3.78683 20.625 4.95841V7.08341H12.375V4.95841ZM31.625 26.2084C31.625 28.9426 29.4662 31.1667 26.8125 31.1667H6.1875C3.53375 31.1667 1.375 28.9426 1.375 26.2084V13.4584C1.375 10.7242 3.53375 8.50008 6.1875 8.50008H26.8125C29.4662 8.50008 31.625 10.7242 31.625 13.4584V26.2084ZM22 19.8334C22 20.2244 21.692 20.5417 21.3125 20.5417H17.1875V24.7917C17.1875 25.1827 16.8795 25.5001 16.5 25.5001C16.1205 25.5001 15.8125 25.1827 15.8125 24.7917V20.5417H11.6875C11.308 20.5417 11 20.2244 11 19.8334C11 19.4424 11.308 19.1251 11.6875 19.1251H15.8125V14.8751C15.8125 14.4841 16.1205 14.1667 16.5 14.1667C16.8795 14.1667 17.1875 14.4841 17.1875 14.8751V19.1251H21.3125C21.692 19.1251 22 19.4424 22 19.8334Z" fill="#004E50"/>
</svg>
