<svg width="33" height="32" viewBox="0 0 33 32" fill="none" xmlns="http://www.w3.org/2000/svg">
<g clip-path="url(#clip0_68_182)">
<path d="M28.4325 13.4479L28.4192 13.4269L22.5752 5.16098C21.4539 3.57563 19.6139 2.62915 17.6539 2.62915H11.2072C8.72985 2.62915 6.47518 4.16324 5.59652 6.44793L2.75652 13.8318C1.42718 14.6429 0.539185 16.0941 0.539185 17.7465V21.0329C0.539185 22.4829 1.73518 23.662 3.20585 23.662V24.9766C3.20585 27.1508 5.00052 28.9202 7.20585 28.9202C9.41119 28.9202 11.2059 27.1508 11.2059 24.9766V23.662H21.8725V24.9766C21.8725 27.1508 23.6672 28.9202 25.8725 28.9202C28.0779 28.9202 29.8725 27.1508 29.8725 24.9766V23.662C31.3432 23.662 32.5392 22.4829 32.5392 21.0329V19.0611C32.5392 16.4517 30.8165 14.2314 28.4325 13.4479ZM9.87252 24.9766C9.87252 26.4265 8.67652 27.6057 7.20585 27.6057C5.73518 27.6057 4.53918 26.4265 4.53918 24.9766V23.662H9.87252V24.9766ZM28.5392 24.9766C28.5392 26.4265 27.3432 27.6057 25.8725 27.6057C24.4019 27.6057 23.2059 26.4265 23.2059 24.9766V23.662H28.5392V24.9766ZM31.2059 21.0329C31.2059 21.7572 30.6072 22.3475 29.8725 22.3475H3.20585C2.47118 22.3475 1.87252 21.7572 1.87252 21.0329V17.7465C1.87252 15.9351 3.36852 14.4601 5.20585 14.4601H7.87252C8.24052 14.4601 8.53918 14.1657 8.53918 13.8029C8.53918 13.44 8.24052 13.1456 7.87252 13.1456H5.20585C4.93918 13.1456 4.67652 13.1679 4.42185 13.2113L6.84185 6.9146C7.52585 5.13732 9.27918 3.94502 11.2059 3.94502H17.6525C19.1779 3.94502 20.6085 4.68117 21.4805 5.91554L26.5952 13.1482H22.5392C22.1712 13.1482 21.8725 13.4414 21.8725 13.8042C21.8725 14.167 22.1712 14.4615 22.5392 14.4615H26.5392C29.1125 14.4615 31.2059 16.5253 31.2059 19.0624V21.0329ZM19.0059 14.0145C19.2979 14.5508 19.2672 15.1989 18.9259 15.7063L15.0725 20.7713C14.9419 20.9435 14.7405 21.0342 14.5392 21.0342C14.4005 21.0342 14.2605 20.9908 14.1392 20.9028C13.8445 20.6846 13.7859 20.2731 14.0059 19.9826L17.8365 14.9492C17.9152 14.8295 17.8592 14.6902 17.8299 14.6376C17.8019 14.585 17.7152 14.4615 17.5312 14.4615H12.8979C12.3565 14.4615 11.8619 14.2156 11.5392 13.7871C11.2165 13.3585 11.1219 12.8209 11.2792 12.3095C11.3019 12.2372 15.3365 6.83967 15.3365 6.83967C15.5565 6.54784 15.9725 6.48474 16.2685 6.70295C16.5645 6.91854 16.6272 7.33131 16.4072 7.62183L12.5392 12.7749C12.5339 12.8814 12.5779 12.9602 12.6099 13.0036C12.6499 13.0575 12.7405 13.1456 12.8979 13.1456H17.5312C18.1485 13.1456 18.7125 13.4782 19.0045 14.0145H19.0059Z" fill="#004E50"/>
</g>
<defs>
<clipPath id="clip0_68_182">
<rect width="32" height="31.5493" fill="white" transform="translate(0.539185)"/>
</clipPath>
</defs>
</svg>
