<svg width="32" height="32" viewBox="0 0 32 32" fill="none" xmlns="http://www.w3.org/2000/svg">
<g clip-path="url(#clip0_68_202)">
<path d="M32 6.12124V27.5839L16 32.0266L0 27.5839V6.12124C0 5.09324 0.452 4.12658 1.24133 3.46924C1.26933 3.44524 1.304 3.43058 1.33333 3.40791V26.5706L16 30.6412L30.6667 26.5706V3.40791C30.696 3.43058 30.7293 3.44524 30.7587 3.46924C31.548 4.12791 32 5.09458 32 6.12124ZM16 28.0266L4 24.5972V4.66791C4 3.61191 4.484 2.64258 5.32667 2.00658C6.17067 1.37058 7.236 1.17458 8.24933 1.46258L13.8347 3.05858C14.74 3.31724 15.4973 3.89058 16 4.63858C16.5027 3.89058 17.26 3.31724 18.1653 3.05858L23.7507 1.46258C24.764 1.17324 25.8307 1.37058 26.6733 2.00658C27.516 2.64258 28 3.61324 28 4.66791V24.5972L16 28.0266ZM16.6667 26.4492L26.6667 23.5919V4.66791C26.6667 4.03458 26.376 3.45191 25.8707 3.07058C25.5173 2.80524 25.0987 2.66658 24.672 2.66658C24.4867 2.66658 24.3013 2.69324 24.1173 2.74524L18.5307 4.34124C17.4333 4.65458 16.6667 5.67191 16.6667 6.81324V26.4492ZM15.3333 6.81324C15.3333 5.67058 14.5667 4.65324 13.4693 4.34124L7.884 2.74524C7.27467 2.57058 6.63733 2.68924 6.13067 3.07058C5.62533 3.45191 5.33467 4.03458 5.33467 4.66791V23.5919L15.3347 26.4492V6.81324H15.3333Z" fill="#004E50"/>
</g>
<defs>
<clipPath id="clip0_68_202">
<rect width="32" height="32" fill="white"/>
</clipPath>
</defs>
</svg>
