<svg width="35" height="34" viewBox="0 0 35 34" fill="none" xmlns="http://www.w3.org/2000/svg">
<g clip-path="url(#clip0_68_220)">
<path d="M17.2596 0C7.88556 0 0.259644 7.62592 0.259644 17C0.259644 26.3741 7.88556 34 17.2596 34C26.6337 34 34.2596 26.3741 34.2596 17C34.2596 7.62592 26.6337 0 17.2596 0ZM30.5182 8.82158L27.42 11.9212C26.893 12.4482 26.1634 12.75 25.4168 12.75H21.5096V9.33017L18.1861 6.00808L14.0325 8.5H13.0082V6.45292L9.69181 3.38158C11.9344 2.13067 14.5141 1.41667 17.2582 1.41667C22.8526 1.41667 27.7699 4.38033 30.5182 8.82158ZM22.9263 16.8796V19.4423L19.2911 25.5014H18.3675L16.9508 19.8347H13.0111C12.2291 19.8347 11.5944 19.1987 11.5944 18.4181V16.3427L14.857 14.1681H20.2162L22.9263 16.8796ZM17.2596 32.5847C8.66756 32.5847 1.67631 25.5935 1.67631 17.0014C1.67631 11.6776 4.36089 6.97 8.44514 4.15792L11.593 7.072V9.91808H14.4263L17.968 7.79308L20.093 9.91808V12.7514H14.4263L10.1763 15.5848V18.4181C10.1763 19.9807 11.4471 21.2514 13.0096 21.2514H15.843L17.2596 26.9181H20.093L24.343 19.8347V16.2931L22.218 14.1681H25.4168C26.536 14.1681 27.6311 13.7148 28.4216 12.9242L31.2336 10.1108C32.2636 12.1904 32.843 14.5293 32.843 17.0014C32.843 25.5935 25.8517 32.5847 17.2596 32.5847Z" fill="#004E50"/>
</g>
<defs>
<clipPath id="clip0_68_220">
<rect width="34" height="34" fill="white" transform="translate(0.259644)"/>
</clipPath>
</defs>
</svg>
