<svg width="29" height="28" viewBox="0 0 29 28" fill="none" xmlns="http://www.w3.org/2000/svg">
<path d="M21.8218 21.1427V21.0161C21.8218 20.4846 21.6028 19.9749 21.2131 19.5991C20.8234 19.2233 20.2948 19.0122 19.7437 19.0122H9.0249C8.47375 19.0122 7.94517 19.2233 7.55545 19.5991C7.16572 19.9749 6.94678 20.4846 6.94678 21.0161V21.1427" fill="#FDB604"/>
<path d="M16.493 21.1216H6.18115C5.45595 21.1216 4.76045 21.3994 4.24766 21.8939C3.73486 22.3883 3.44678 23.059 3.44678 23.7583V26.1841H25.3218V23.7583C25.3213 23.3477 25.2209 22.943 25.0286 22.5766C24.8364 22.2103 24.5577 21.8925 24.2149 21.6489" fill="#FDB604"/>
<path d="M18.7593 19.0122C18.7593 18.9869 17.7355 16.0844 17.7224 16.0591C17.2516 14.922 16.9212 13.7354 16.738 12.5238C16.6654 11.9991 16.7218 11.4652 16.9027 10.9654C17.0836 10.4656 17.3839 10.0138 17.7793 9.64658C18.4539 8.99821 18.9139 8.17136 19.1009 7.27074C19.2879 6.37012 19.1936 5.43624 18.8298 4.58736C18.466 3.73848 17.8492 3.01278 17.0575 2.50217C16.2657 1.99156 15.3346 1.71899 14.3821 1.71899C13.4296 1.71899 12.4985 1.99156 11.7067 2.50217C10.9149 3.01278 10.2981 3.73848 9.93435 4.58736C9.57059 5.43624 9.47624 6.37012 9.66325 7.27074C9.85026 8.17136 10.3102 8.99821 10.9849 9.64658C11.3706 9.99679 11.6663 10.4289 11.8486 10.9086C12.0309 11.3882 12.0946 11.9023 12.0349 12.4099C11.7983 14.079 11.2796 15.6994 10.4993 17.2066L9.57177 19.0122" fill="#FDB604"/>
<path d="M20.5093 24.4966C21.9065 24.0229 23.1182 23.1453 23.9794 21.9835C24.8406 20.8216 25.3093 19.432 25.3218 18.0039V17.4639L20.5093 14.3716L15.6968 17.4639V18.0039C15.7092 19.432 16.178 20.8216 17.0392 21.9835C17.9004 23.1453 19.1121 24.0229 20.5093 24.4966Z" fill="#FDB604"/>
<path d="M25.5624 17.1138L20.7499 14.0214C20.6785 13.976 20.5948 13.9519 20.5093 13.9519C20.4237 13.9519 20.3401 13.976 20.2687 14.0214L17.9718 15.4938C17.5976 14.5118 17.3293 13.4954 17.1712 12.4605C17.1074 11.9979 17.1582 11.5273 17.3194 11.0873C17.4806 10.6474 17.7477 10.2505 18.0987 9.92922C18.8311 9.22052 19.3293 8.31844 19.5304 7.33689C19.7315 6.35534 19.6264 5.33835 19.2285 4.41432C18.8306 3.49029 18.1577 2.70068 17.2948 2.14518C16.4318 1.58968 15.4175 1.29321 14.3799 1.29321C13.3423 1.29321 12.328 1.58968 11.4651 2.14518C10.6021 2.70068 9.92918 3.49029 9.53128 4.41432C9.13339 5.33835 9.02835 6.35534 9.22945 7.33689C9.43055 8.31844 9.92875 9.22052 10.6612 9.92922C11.0004 10.2319 11.261 10.6073 11.4221 11.025C11.5833 11.4427 11.6403 11.891 11.5887 12.3339C11.3578 13.9571 10.8539 15.5331 10.0968 16.9998L9.30053 18.5903H9.0249C8.41462 18.5904 7.82518 18.8044 7.36639 19.1925C6.9076 19.5806 6.61075 20.1162 6.53115 20.6997H6.18115C5.34027 20.7008 4.53417 21.0234 3.93958 21.5968C3.34499 22.1701 3.01043 22.9474 3.00928 23.7583V26.1841C3.00928 26.296 3.05537 26.4033 3.13742 26.4824C3.21947 26.5615 3.33075 26.6059 3.44678 26.6059H25.3218C25.4378 26.6059 25.5491 26.5615 25.6311 26.4824C25.7132 26.4033 25.7593 26.296 25.7593 26.1841V23.7583C25.7583 23.3442 25.6706 22.9346 25.5014 22.554C25.3323 22.1734 25.0852 21.8297 24.7749 21.5434C25.4154 20.4657 25.7546 19.246 25.7593 18.0039V17.4639C25.7589 17.3944 25.7407 17.3261 25.7064 17.265C25.672 17.2039 25.6226 17.152 25.5624 17.1138ZM11.3218 9.35125C10.7073 8.76225 10.2881 8.01059 10.1171 7.19155C9.94621 6.37251 10.0313 5.52298 10.3617 4.75064C10.6921 3.9783 11.2528 3.31794 11.9728 2.85327C12.6929 2.38859 13.5398 2.14053 14.4062 2.14053C15.2726 2.14053 16.1194 2.38859 16.8395 2.85327C17.5595 3.31794 18.1202 3.9783 18.4506 4.75064C18.781 5.52298 18.8661 6.37251 18.6952 7.19155C18.5243 8.01059 18.105 8.76225 17.4905 9.35125C17.0479 9.76454 16.712 10.2722 16.5099 10.8335C16.3077 11.3948 16.245 11.9939 16.3268 12.5828C16.4806 13.6225 16.7384 14.6454 17.0968 15.6372H11.6762C12.0567 14.6109 12.325 13.549 12.4768 12.4689C12.5496 11.8984 12.4831 11.3194 12.2825 10.7781C12.082 10.2367 11.753 9.74814 11.3218 9.35125ZM10.8843 17.4006C11.0374 17.0969 11.1818 16.7889 11.3218 16.4809H16.4405L15.4562 17.1138C15.396 17.152 15.3465 17.2039 15.3122 17.265C15.2778 17.3261 15.2597 17.3944 15.2593 17.4639V18.0039C15.2593 18.2022 15.2593 18.3963 15.2855 18.5903H10.2805L10.8843 17.4006ZM9.0249 19.4341H15.4168C15.5075 19.8672 15.6408 20.291 15.8149 20.6997H7.41928C7.49408 20.3423 7.6949 20.021 7.98761 19.7903C8.28031 19.5595 8.64685 19.4337 9.0249 19.4341ZM24.8843 23.7583V25.7622H3.88428V23.7583C3.88543 23.1712 4.1278 22.6085 4.55829 22.1934C4.98879 21.7783 5.57234 21.5446 6.18115 21.5434H16.2437C17.1596 23.0962 18.6191 24.2837 20.3605 24.8931C20.4566 24.9266 20.5619 24.9266 20.658 24.8931C22.1076 24.3845 23.3693 23.4746 24.2849 22.2775C24.6696 22.6815 24.8835 23.2098 24.8843 23.7583ZM24.8843 18.0039C24.8674 19.3178 24.4412 20.5965 23.661 21.6738C22.8808 22.7511 21.7827 23.5774 20.5093 24.0452C19.2359 23.5774 18.1378 22.7511 17.3576 21.6738C16.5774 20.5965 16.1512 19.3178 16.1343 18.0039V17.6917L20.5093 14.8778L24.8843 17.6917V18.0039Z" fill="#063A41"/>
<path d="M19.5293 19.5818C19.492 19.5397 19.4464 19.5051 19.3952 19.4799C19.344 19.4548 19.2881 19.4397 19.2308 19.4354C19.1735 19.4311 19.1159 19.4377 19.0613 19.4548C19.0067 19.472 18.9561 19.4993 18.9124 19.5354C18.8688 19.5714 18.8329 19.6153 18.8068 19.6647C18.7808 19.7141 18.7651 19.7679 18.7606 19.8232C18.7561 19.8784 18.763 19.9339 18.7808 19.9866C18.7986 20.0393 18.827 20.0881 18.8643 20.1302L19.9887 21.3958C20.0298 21.4421 20.0807 21.4793 20.1381 21.5048C20.1955 21.5303 20.258 21.5435 20.3212 21.5435H20.3868C20.4607 21.5326 20.5305 21.5036 20.5894 21.4593C20.6484 21.4149 20.6946 21.3568 20.7237 21.2904L22.2243 17.9154C22.2644 17.8134 22.2619 17.7004 22.2175 17.6001C22.1731 17.4998 22.0901 17.42 21.9859 17.3775C21.8818 17.3349 21.7646 17.3329 21.659 17.3718C21.5533 17.4107 21.4674 17.4876 21.4193 17.5863L20.1987 20.3369L19.5293 19.5818Z" fill="#063A41"/>
</svg>
