<svg width="41" height="42" viewBox="0 0 41 42" fill="none" xmlns="http://www.w3.org/2000/svg">
<g clip-path="url(#clip0_254_5)">
<path d="M16.656 5.15479H1.28101C0.941197 5.15479 0.615305 5.28977 0.375024 5.53005C0.134743 5.77034 -0.000244141 6.09623 -0.000244141 6.43604V26.936C-0.000244141 29.3147 0.944673 31.5959 2.62664 33.2779C4.30861 34.9599 6.58985 35.9048 8.96851 35.9048H16.656C16.9958 35.9048 17.3217 35.7698 17.562 35.5295C17.8023 35.2892 17.9373 34.9633 17.9373 34.6235C17.9373 34.2837 17.8023 33.9578 17.562 33.7176C17.3217 33.4773 16.9958 33.3423 16.656 33.3423H8.96851C7.26946 33.3423 5.64001 32.6673 4.4386 31.4659C3.2372 30.2645 2.56226 28.6351 2.56226 26.936V23.0923H16.656C16.9958 23.0923 17.3217 22.9573 17.562 22.717C17.8023 22.4767 17.9373 22.1508 17.9373 21.811V6.43604C17.9373 6.09623 17.8023 5.77034 17.562 5.53005C17.3217 5.28977 16.9958 5.15479 16.656 5.15479ZM15.3748 20.5298H2.56226V7.71729H15.3748V20.5298ZM39.7185 23.0923C40.0583 23.0923 40.3842 22.9573 40.6245 22.717C40.8648 22.4767 40.9998 22.1508 40.9998 21.811V6.43604C40.9998 6.09623 40.8648 5.77034 40.6245 5.53005C40.3842 5.28977 40.0583 5.15479 39.7185 5.15479H24.3435C24.0037 5.15479 23.6778 5.28977 23.4375 5.53005C23.1972 5.77034 23.0623 6.09623 23.0623 6.43604V26.936C23.0623 29.3147 24.0072 31.5959 25.6891 33.2779C27.3711 34.9599 29.6523 35.9048 32.031 35.9048H39.7185C40.0583 35.9048 40.3842 35.7698 40.6245 35.5295C40.8648 35.2892 40.9998 34.9633 40.9998 34.6235C40.9998 34.2837 40.8648 33.9578 40.6245 33.7176C40.3842 33.4773 40.0583 33.3423 39.7185 33.3423H32.031C31.1897 33.3423 30.3567 33.1766 29.5794 32.8546C28.8022 32.5327 28.096 32.0608 27.5011 31.4659C26.2997 30.2645 25.6248 28.6351 25.6248 26.936V23.0923H39.7185ZM38.4373 20.5298H25.6248V7.71729H38.4373V20.5298Z" fill="#FDB604"/>
</g>
<defs>
<clipPath id="clip0_254_5">
<rect width="41" height="41" fill="white" transform="translate(-0.000244141 0.0297852)"/>
</clipPath>
</defs>
</svg>
