<svg width="42" height="42" viewBox="0 0 42 42" fill="none" xmlns="http://www.w3.org/2000/svg">
<g clip-path="url(#clip0_164_2316)">
<path d="M17.3667 5.31299H1.9917C1.65189 5.31299 1.326 5.44798 1.08572 5.68826C0.845437 5.92854 0.710449 6.25443 0.710449 6.59424V27.0942C0.710449 29.4729 1.65537 31.7541 3.33733 33.4361C5.0193 35.1181 7.30054 36.063 9.6792 36.063H17.3667C17.7065 36.063 18.0324 35.928 18.2727 35.6877C18.513 35.4474 18.6479 35.1215 18.6479 34.7817C18.6479 34.4419 18.513 34.116 18.2727 33.8758C18.0324 33.6355 17.7065 33.5005 17.3667 33.5005H9.6792C7.98016 33.5005 6.3507 32.8255 5.1493 31.6241C3.94789 30.4227 3.27295 28.7933 3.27295 27.0942V23.2505H17.3667C17.7065 23.2505 18.0324 23.1155 18.2727 22.8752C18.513 22.6349 18.6479 22.309 18.6479 21.9692V6.59424C18.6479 6.25443 18.513 5.92854 18.2727 5.68826C18.0324 5.44798 17.7065 5.31299 17.3667 5.31299ZM16.0854 20.688H3.27295V7.87549H16.0854V20.688ZM40.4292 23.2505C40.769 23.2505 41.0949 23.1155 41.3352 22.8752C41.5755 22.6349 41.7104 22.309 41.7104 21.9692V6.59424C41.7104 6.25443 41.5755 5.92854 41.3352 5.68826C41.0949 5.44798 40.769 5.31299 40.4292 5.31299H25.0542C24.7144 5.31299 24.3885 5.44798 24.1482 5.68826C23.9079 5.92854 23.7729 6.25443 23.7729 6.59424V27.0942C23.7729 29.4729 24.7179 31.7541 26.3998 33.4361C28.0818 35.1181 30.363 36.063 32.7417 36.063H40.4292C40.769 36.063 41.0949 35.928 41.3352 35.6877C41.5755 35.4474 41.7104 35.1215 41.7104 34.7817C41.7104 34.4419 41.5755 34.116 41.3352 33.8758C41.0949 33.6355 40.769 33.5005 40.4292 33.5005H32.7417C31.9004 33.5005 31.0674 33.3348 30.2901 33.0128C29.5129 32.6909 28.8067 32.219 28.2118 31.6241C27.0104 30.4227 26.3354 28.7933 26.3354 27.0942V23.2505H40.4292ZM39.1479 20.688H26.3354V7.87549H39.1479V20.688Z" fill="#6CD689"/>
</g>
<defs>
<clipPath id="clip0_164_2316">
<rect width="41" height="41" fill="white" transform="translate(0.710449 0.187988)"/>
</clipPath>
</defs>
</svg>
