<svg width="71" height="71" viewBox="0 0 71 71" fill="none" xmlns="http://www.w3.org/2000/svg">
<path d="M5.71498 58.6787L8.17592 66.0177C8.2163 66.2399 8.30095 66.4518 8.42484 66.6406C8.54873 66.8294 8.70932 66.9914 8.89707 67.1169C9.08482 67.2424 9.2959 67.3289 9.51774 67.3712C9.73958 67.4135 9.96766 67.4107 10.1884 67.3631L27.1962 64.3771C27.6364 64.3044 28.0306 64.0622 28.2943 63.7024C28.558 63.3425 28.6703 62.8937 28.6072 62.4521L26.1462 55.1131C26.0566 54.6771 25.7981 54.2944 25.4271 54.0485C25.0562 53.8025 24.603 53.7134 24.1665 53.8006L7.15873 56.7646C6.93765 56.7941 6.72463 56.8672 6.53204 56.9797C6.33944 57.0922 6.1711 57.2418 6.03679 57.4199C5.90248 57.598 5.80487 57.8009 5.74963 58.017C5.69438 58.2331 5.68261 58.458 5.71498 58.6787Z" fill="#FBD044"/>
<path d="M64.7774 58.6787L62.3165 66.0177C62.2761 66.2399 62.1915 66.4517 62.0676 66.6406C61.9437 66.8294 61.7831 66.9914 61.5953 67.1169C61.4076 67.2424 61.1965 67.3288 60.9747 67.3711C60.7528 67.4134 60.5247 67.4107 60.304 67.363L43.2962 64.3443C42.856 64.2716 42.4619 64.0294 42.1981 63.6695C41.9344 63.3097 41.8221 62.8609 41.8852 62.4193L44.3462 55.0802C44.4358 54.6443 44.6943 54.2615 45.0653 54.0156C45.4362 53.7697 45.8894 53.6806 46.3259 53.7677L63.3337 56.7646C63.5548 56.7941 63.7678 56.8672 63.9604 56.9797C64.153 57.0922 64.3213 57.2418 64.4556 57.4199C64.5899 57.5979 64.6875 57.8009 64.7428 58.017C64.798 58.2331 64.8098 58.458 64.7774 58.6787Z" fill="#FBD044"/>
<path d="M9.24779 56.4255C8.76654 55.3318 8.26341 54.1287 8.25248 54.0302L4.44623 40.5224C3.09177 35.7389 3.25225 30.6532 4.9056 25.9646L8.55873 15.5412C8.65629 15.2377 8.81371 14.9569 9.02168 14.7153C9.22965 14.4738 9.48395 14.2763 9.76953 14.1347C10.0551 13.9932 10.3662 13.9103 10.6844 13.891C11.0025 13.8717 11.3213 13.9164 11.6219 14.0224C11.9225 14.1285 12.1988 14.2937 12.4345 14.5084C12.6701 14.7231 12.8603 14.9828 12.9938 15.2723C13.1273 15.5617 13.2014 15.875 13.2118 16.1936C13.2221 16.5122 13.1685 16.8296 13.054 17.1271L10.5603 24.2037C8.72455 29.3946 8.72455 35.0581 10.5603 40.249L12.1462 44.7552C12.2346 45.3124 12.5258 45.8173 12.964 46.1726C13.4022 46.528 13.9562 46.7088 14.5197 46.6802C14.8366 46.6524 15.1437 46.5558 15.4195 46.3972C15.6953 46.2385 15.9332 46.0215 16.1165 45.7615C16.4485 45.2918 16.5821 44.7102 16.4884 44.1427L15.1322 36.4865C15.0433 35.9551 15.1134 35.4093 15.3337 34.9176C15.554 34.4259 15.9146 34.0102 16.3703 33.7228C16.826 33.4353 17.3565 33.2889 17.8951 33.3019C18.4337 33.3149 18.9565 33.4868 19.3978 33.7959C19.9772 34.2089 20.3702 34.8338 20.4915 35.5349L22.7337 48.3099C23.0793 50.1634 23.2405 52.0465 23.215 53.9318" fill="#F2F2F2"/>
<path d="M47.2775 53.9317C47.2296 52.045 47.3688 50.1582 47.6931 48.2989L49.8806 35.5239C50.002 34.8228 50.395 34.1979 50.9744 33.7849C51.4157 33.4758 51.9385 33.3039 52.4771 33.2909C53.0157 33.2779 53.5462 33.4243 54.0019 33.7118C54.4576 33.9992 54.8182 34.4149 55.0385 34.9066C55.2588 35.3983 55.3289 35.9441 55.24 36.4755L53.8838 44.1317C53.7901 44.6992 53.9237 45.2808 54.2556 45.7505C54.439 46.0106 54.6768 46.2275 54.9526 46.3862C55.2284 46.5449 55.5355 46.6415 55.8525 46.6692C56.4159 46.6978 56.97 46.517 57.4082 46.1616C57.8463 45.8063 58.1376 45.3014 58.226 44.7442L59.8119 40.238C61.6476 35.0471 61.6476 29.3836 59.8119 24.1927L57.3181 17.1161C57.2037 16.8186 57.1501 16.5012 57.1604 16.1826C57.1707 15.864 57.2449 15.5507 57.3784 15.2613C57.5119 14.9718 57.7021 14.7121 57.9377 14.4974C58.1734 14.2827 58.4496 14.1175 58.7502 14.0114C59.0508 13.9054 59.3696 13.8607 59.6878 13.88C60.006 13.8993 60.3171 13.9822 60.6027 14.1238C60.8882 14.2653 61.1425 14.4628 61.3505 14.7043C61.5585 14.9459 61.7159 15.2267 61.8135 15.5302L65.4666 25.9536C67.1199 30.6422 67.2804 35.7279 65.926 40.5114L62.24 53.9974C62.24 54.0958 61.726 55.2771 61.2447 56.3927" fill="#F2F2F2"/>
<path d="M51.6525 13.7693H36.34C35.7598 13.7693 35.2034 13.9998 34.7932 14.41C34.3829 14.8202 34.1525 15.3766 34.1525 15.9568C34.1525 16.5369 34.3829 17.0933 34.7932 17.5036C35.2034 17.9138 35.7598 18.1443 36.34 18.1443H39.6212V30.1755C39.6212 30.7557 39.8517 31.3121 40.2619 31.7223C40.6722 32.1326 41.2286 32.363 41.8087 32.363C42.3889 32.363 42.9453 32.1326 43.3555 31.7223C43.7657 31.3121 43.9962 30.7557 43.9962 30.1755C43.9962 30.7557 44.2267 31.3121 44.6369 31.7223C45.0472 32.1326 45.6036 32.363 46.1837 32.363C46.7639 32.363 47.3203 32.1326 47.7305 31.7223C48.1407 31.3121 48.3712 30.7557 48.3712 30.1755V18.1443H51.6525C52.2326 18.1443 52.789 17.9138 53.1993 17.5036C53.6095 17.0933 53.84 16.5369 53.84 15.9568C53.84 15.3766 53.6095 14.8202 53.1993 14.41C52.789 13.9998 52.2326 13.7693 51.6525 13.7693Z" fill="#6CD689"/>
<path d="M43.9962 10.488C45.8084 10.488 47.2775 9.01897 47.2775 7.20679C47.2775 5.3946 45.8084 3.92554 43.9962 3.92554C42.184 3.92554 40.715 5.3946 40.715 7.20679C40.715 9.01897 42.184 10.488 43.9962 10.488Z" fill="#6CD689"/>
<path d="M34.1525 13.7693H18.84C18.2598 13.7693 17.7034 13.9998 17.2932 14.41C16.8829 14.8202 16.6525 15.3766 16.6525 15.9568C16.6525 16.5369 16.8829 17.0933 17.2932 17.5036C17.7034 17.9138 18.2598 18.1443 18.84 18.1443H22.1212V30.1755C22.1212 30.7557 22.3517 31.3121 22.7619 31.7223C23.1722 32.1326 23.7286 32.363 24.3087 32.363C24.8889 32.363 25.4453 32.1326 25.8555 31.7223C26.2657 31.3121 26.4962 30.7557 26.4962 30.1755C26.4962 30.7557 26.7267 31.3121 27.1369 31.7223C27.5472 32.1326 28.1036 32.363 28.6837 32.363C29.2639 32.363 29.8203 32.1326 30.2305 31.7223C30.6407 31.3121 30.8712 30.7557 30.8712 30.1755V18.1443H34.1525C34.7326 18.1443 35.289 17.9138 35.6993 17.5036C36.1095 17.0933 36.34 16.5369 36.34 15.9568C36.34 15.3766 36.1095 14.8202 35.6993 14.41C35.289 13.9998 34.7326 13.7693 34.1525 13.7693Z" fill="#6CD689"/>
<path d="M26.4962 10.488C28.3084 10.488 29.7775 9.01897 29.7775 7.20679C29.7775 5.3946 28.3084 3.92554 26.4962 3.92554C24.684 3.92554 23.215 5.3946 23.215 7.20679C23.215 9.01897 24.684 10.488 26.4962 10.488Z" fill="#6CD689"/>
<path d="M42.9025 18.1443H27.59C27.0098 18.1443 26.4534 18.3748 26.0432 18.785C25.6329 19.1952 25.4025 19.7516 25.4025 20.3318C25.4025 20.9119 25.6329 21.4683 26.0432 21.8786C26.4534 22.2888 27.0098 22.5193 27.59 22.5193H30.8712V34.5505C30.8712 35.1307 31.1017 35.6871 31.5119 36.0973C31.9222 36.5076 32.4786 36.738 33.0587 36.738C33.6389 36.738 34.1953 36.5076 34.6055 36.0973C35.0157 35.6871 35.2462 35.1307 35.2462 34.5505C35.2462 35.1307 35.4767 35.6871 35.8869 36.0973C36.2972 36.5076 36.8536 36.738 37.4337 36.738C38.0139 36.738 38.5703 36.5076 38.9805 36.0973C39.3907 35.6871 39.6212 35.1307 39.6212 34.5505V22.5193H42.9025C43.4826 22.5193 44.039 22.2888 44.4493 21.8786C44.8595 21.4683 45.09 20.9119 45.09 20.3318C45.09 19.7516 44.8595 19.1952 44.4493 18.785C44.039 18.3748 43.4826 18.1443 42.9025 18.1443Z" fill="#F2F2F2"/>
<path d="M35.2462 14.863C37.0584 14.863 38.5275 13.394 38.5275 11.5818C38.5275 9.7696 37.0584 8.30054 35.2462 8.30054C33.434 8.30054 31.965 9.7696 31.965 11.5818C31.965 13.394 33.434 14.863 35.2462 14.863Z" fill="#F2F2F2"/>
<path d="M7.19151 54.2928C7.19151 54.424 7.35557 54.7412 7.69464 55.5615L6.97276 55.6818C6.60885 55.7353 6.25911 55.8602 5.94366 56.0493C5.62821 56.2385 5.35329 56.4881 5.13473 56.784C4.91616 57.0798 4.75827 57.4159 4.67014 57.773C4.582 58.1301 4.56537 58.5011 4.6212 58.8647C4.61625 58.9192 4.61625 58.9741 4.6212 59.0287L7.14776 66.2693C7.2926 66.9607 7.70557 67.5664 8.2962 67.9537C8.76093 68.2714 9.30838 68.4462 9.8712 68.4568C10.0385 68.4731 10.207 68.4731 10.3743 68.4568L27.3821 65.46C28.1091 65.3417 28.7598 64.9406 29.1922 64.3443C29.6246 63.748 29.8035 63.0049 29.6899 62.2772C29.6899 62.2225 29.6899 62.1678 29.6899 62.124L27.2509 54.8506C27.1104 54.1969 26.7388 53.6158 26.2044 53.214C25.6699 52.8122 25.0085 52.6166 24.3415 52.6631C24.3115 51.138 24.1689 49.6172 23.9149 48.1131L21.6181 35.3381C21.4366 34.3549 20.8766 33.4822 20.0585 32.9075C19.2405 32.3328 18.2295 32.1019 17.2431 32.2647C16.7513 32.3468 16.2806 32.5252 15.858 32.7898C15.4354 33.0545 15.0692 33.4 14.7806 33.8065C14.4919 34.2131 14.2865 34.6726 14.176 35.1588C14.0655 35.645 14.0522 36.1483 14.1368 36.6397L15.4821 44.2959C15.5098 44.4363 15.5076 44.581 15.4755 44.7204C15.4435 44.8599 15.3824 44.991 15.2962 45.1053C15.2034 45.2333 15.084 45.3397 14.9462 45.4171C14.8083 45.4945 14.6554 45.5411 14.4978 45.5537C14.2074 45.5588 13.9253 45.4568 13.7054 45.2672C13.4855 45.0775 13.3432 44.8135 13.3056 44.5256C13.3093 44.4673 13.3093 44.4089 13.3056 44.3506L11.7087 39.8443C9.96427 34.8892 9.96427 29.487 11.7087 24.5318L14.1915 17.4662C14.3953 16.8926 14.445 16.2755 14.3356 15.6767C14.2262 15.0779 13.9615 14.5182 13.5681 14.0537C13.172 13.5882 12.6603 13.2353 12.0844 13.0304C11.5086 12.8256 10.8889 12.7762 10.2879 12.8871C9.68681 12.998 9.12559 13.2653 8.66073 13.6621C8.19588 14.0589 7.84379 14.5713 7.63995 15.1475L3.86651 25.6037C2.13294 30.5068 1.96857 35.828 3.3962 40.8287L7.19151 54.2928ZM25.0743 55.3318C25.0681 55.3827 25.0681 55.4341 25.0743 55.485L27.5899 62.6709C27.5882 62.8178 27.5327 62.959 27.4339 63.0678C27.3352 63.1766 27.2001 63.2455 27.054 63.2615L10.0024 66.2693C9.91807 66.2879 9.83074 66.2888 9.74601 66.2718C9.66128 66.2549 9.581 66.2205 9.51026 66.1709C9.45197 66.1344 9.4016 66.0865 9.36215 66.0301C9.32269 65.9738 9.29495 65.9101 9.28057 65.8428C9.28553 65.7882 9.28553 65.7333 9.28057 65.6787L6.8087 58.4272C6.81494 58.2816 6.87197 58.1428 6.96987 58.0349C7.06777 57.927 7.20037 57.8568 7.34464 57.8365L24.3087 54.8506C24.3907 54.8242 24.4776 54.8162 24.5631 54.8269C24.6485 54.8377 24.7307 54.867 24.8036 54.9129C24.8766 54.9587 24.9386 55.02 24.9854 55.0924C25.0321 55.1648 25.0625 55.2465 25.0743 55.3318ZM5.9337 26.3256L9.59776 15.9568C9.71234 15.6363 9.94957 15.3744 10.2572 15.2288C10.5649 15.0831 10.9178 15.0657 11.2384 15.1803C11.5589 15.2949 11.8208 15.5321 11.9665 15.8398C12.1121 16.1474 12.1295 16.5004 12.015 16.8209L9.53214 23.8428C7.62876 29.2698 7.62876 35.183 9.53214 40.61L11.1071 45.0397C11.2581 45.8465 11.7002 46.5698 12.3496 47.0719C12.9989 47.574 13.8101 47.82 14.629 47.7631C15.0788 47.7225 15.5153 47.5896 15.9113 47.3726C16.3073 47.1555 16.6543 46.8591 16.9305 46.5018C17.2067 46.1445 17.4061 45.7341 17.5164 45.2962C17.6266 44.8583 17.6453 44.4023 17.5712 43.9568L16.2259 36.3006C16.1875 36.092 16.192 35.8778 16.239 35.6709C16.286 35.4641 16.3745 35.269 16.4993 35.0975C16.6262 34.9172 16.7887 34.765 16.9769 34.6502C17.165 34.5354 17.3748 34.4606 17.5931 34.4303C18.025 34.3549 18.4692 34.4532 18.829 34.7037C19.1694 34.9467 19.4042 35.3106 19.4853 35.7209L21.7384 48.4959C21.9884 49.9924 22.1164 51.5068 22.1212 53.024L9.92589 55.2115C9.59776 54.4459 9.36807 53.8881 9.31339 53.7459L5.4962 40.2272C4.19457 35.6603 4.34749 30.8015 5.9337 26.3256Z" fill="#063A41"/>
<path d="M50.4493 32.888C49.6202 33.4636 49.0537 34.3448 48.8743 35.338L46.6212 48.113C46.3635 49.6169 46.2173 51.1377 46.1837 52.663C45.5167 52.6165 44.8552 52.8121 44.3208 53.2139C43.7864 53.6157 43.4148 54.1968 43.2743 54.8505L40.8352 62.124C40.8352 62.124 40.8352 62.2224 40.8352 62.2771C40.7217 63.0048 40.9006 63.748 41.333 64.3443C41.7654 64.9406 42.416 65.3416 43.143 65.4599L60.118 68.4568C60.2854 68.473 60.4539 68.473 60.6212 68.4568C61.1806 68.4559 61.7278 68.2925 62.1962 67.9865C62.7662 67.5888 63.1586 66.9845 63.2899 66.3021L65.729 59.0287C65.7339 58.9741 65.7339 58.9192 65.729 58.8646C65.8425 58.1368 65.6636 57.3937 65.2312 56.7974C64.7989 56.2011 64.1482 55.8001 63.4212 55.6818L62.6993 55.5615C63.0384 54.7411 63.1587 54.4677 63.2024 54.2927L66.9977 40.8287C68.4254 35.8279 68.261 30.5068 66.5274 25.6036L62.9618 15.1911C62.6558 14.3209 62.0166 13.6079 61.1848 13.2089C60.353 12.81 59.3969 12.7578 58.5266 13.0638C57.6564 13.3698 56.9434 14.009 56.5444 14.8408C56.1455 15.6725 56.0933 16.6287 56.3993 17.499L58.8821 24.5646C60.6265 29.5197 60.6265 34.922 58.8821 39.8771L57.2852 44.3943C57.2815 44.4525 57.2815 44.511 57.2852 44.5693C57.2432 44.8553 57.0996 45.1166 56.8806 45.3054C56.6617 45.4942 56.3821 45.5978 56.093 45.5974C55.9289 45.5841 55.7699 45.5339 55.6278 45.4506C55.4858 45.3673 55.3644 45.2529 55.2727 45.1161C55.193 45.0052 55.1372 44.8788 55.109 44.7451C55.0807 44.6114 55.0806 44.4733 55.1087 44.3396L56.454 36.6833C56.5779 35.9406 56.4801 35.1778 56.1727 34.4903C55.8652 33.8029 55.3619 33.2214 54.7256 32.8187C54.0894 32.4159 53.3484 32.2097 52.5956 32.2259C51.8427 32.2422 51.1114 32.4801 50.493 32.9099L50.4493 32.888ZM63.6837 58.4271L61.2555 65.6677C61.2506 65.7223 61.2506 65.7772 61.2555 65.8318C61.2412 65.8991 61.2134 65.9628 61.174 66.0191C61.1345 66.0755 61.0841 66.1234 61.0259 66.1599C60.9548 66.2089 60.8745 66.2429 60.7899 66.2599C60.7053 66.2768 60.6181 66.2763 60.5337 66.2583L43.493 63.2615C43.347 63.2454 43.2119 63.1765 43.1131 63.0677C43.0144 62.9589 42.9589 62.8177 42.9571 62.6708L45.3852 55.4302C45.3914 55.3794 45.3914 55.3279 45.3852 55.2771C45.4264 55.126 45.5248 54.997 45.6596 54.9173C45.7944 54.8377 45.9549 54.8137 46.1071 54.8505L63.1149 57.8365C63.2651 57.8495 63.4055 57.9165 63.51 58.0251C63.6146 58.1337 63.6763 58.2765 63.6837 58.4271ZM54.2555 36.2896L52.9102 43.9458C52.8342 44.3666 52.8435 44.7983 52.9374 45.2154C53.0313 45.6325 53.2081 46.0264 53.4571 46.374C53.7321 46.7641 54.0889 47.0895 54.5026 47.3275C54.9163 47.5655 55.377 47.7104 55.8524 47.7521C56.6703 47.8042 57.4791 47.5564 58.1274 47.0551C58.7757 46.5537 59.219 45.8333 59.3743 45.0287L60.9493 40.599C62.8526 35.1682 62.8526 29.2516 60.9493 23.8208L58.4665 16.7552C58.4039 16.5933 58.3749 16.4204 58.3813 16.247C58.3876 16.0735 58.4292 15.9032 58.5035 15.7463C58.5777 15.5895 58.6831 15.4493 58.8133 15.3345C58.9434 15.2196 59.0955 15.1324 59.2604 15.0782C59.4252 15.024 59.5994 15.0039 59.7723 15.0191C59.9452 15.0343 60.1132 15.0846 60.2661 15.1667C60.4189 15.2489 60.5535 15.3613 60.6615 15.4972C60.7696 15.633 60.8489 15.7893 60.8946 15.9568L64.5587 26.3693C66.1449 30.8452 66.2978 35.704 64.9962 40.2708L61.1899 53.6912C61.1899 53.8333 60.9055 54.3912 60.5774 55.1568L48.3712 53.024C48.379 51.5028 48.5107 49.9847 48.7649 48.4849L51.018 35.7208C51.0562 35.5108 51.1355 35.3104 51.2514 35.1312C51.3673 34.9519 51.5175 34.7974 51.6933 34.6764C51.8692 34.5554 52.0673 34.4704 52.2761 34.4263C52.485 34.3822 52.7005 34.3798 52.9102 34.4193C53.1285 34.4496 53.3383 34.5244 53.5264 34.6392C53.7146 34.754 53.8771 34.9062 54.004 35.0865C54.125 35.2596 54.2097 35.4555 54.2529 35.6623C54.2961 35.8691 54.297 36.0825 54.2555 36.2896Z" fill="#063A41"/>
<path d="M43.9962 11.5818C44.8615 11.5818 45.7074 11.3252 46.4268 10.8445C47.1463 10.3637 47.7071 9.68046 48.0382 8.88103C48.3693 8.0816 48.456 7.20194 48.2872 6.35327C48.1183 5.5046 47.7017 4.72505 47.0898 4.1132C46.478 3.50134 45.6984 3.08466 44.8497 2.91585C44.0011 2.74704 43.1214 2.83368 42.322 3.16482C41.5225 3.49595 40.8393 4.0567 40.3585 4.77617C39.8778 5.49563 39.6212 6.3415 39.6212 7.20679C39.6212 8.36711 40.0822 9.47991 40.9026 10.3004C41.7231 11.1209 42.8359 11.5818 43.9962 11.5818ZM43.9962 5.01929C44.4289 5.01929 44.8518 5.14758 45.2115 5.38795C45.5713 5.62831 45.8516 5.96996 46.0172 6.36967C46.1828 6.76938 46.2261 7.20922 46.1417 7.63355C46.0573 8.05788 45.8489 8.44766 45.543 8.75359C45.2371 9.05951 44.8473 9.26785 44.423 9.35226C43.9986 9.43666 43.5588 9.39334 43.1591 9.22778C42.7594 9.06221 42.4177 8.78183 42.1774 8.4221C41.937 8.06237 41.8087 7.63944 41.8087 7.20679C41.8087 6.62663 42.0392 6.07023 42.4494 5.65999C42.8597 5.24976 43.4161 5.01929 43.9962 5.01929Z" fill="#063A41"/>
<path d="M26.4962 11.5818C27.3615 11.5818 28.2074 11.3252 28.9268 10.8445C29.6463 10.3637 30.2071 9.68046 30.5382 8.88103C30.8693 8.0816 30.956 7.20194 30.7872 6.35327C30.6183 5.5046 30.2017 4.72505 29.5898 4.1132C28.978 3.50134 28.1984 3.08466 27.3497 2.91585C26.5011 2.74704 25.6214 2.83368 24.822 3.16482C24.0225 3.49595 23.3393 4.0567 22.8585 4.77617C22.3778 5.49563 22.1212 6.3415 22.1212 7.20679C22.1212 8.36711 22.5822 9.47991 23.4026 10.3004C24.2231 11.1209 25.3359 11.5818 26.4962 11.5818ZM26.4962 5.01929C26.9289 5.01929 27.3518 5.14758 27.7115 5.38795C28.0713 5.62831 28.3516 5.96996 28.5172 6.36967C28.6828 6.76938 28.7261 7.20922 28.6417 7.63355C28.5573 8.05788 28.3489 8.44766 28.043 8.75359C27.7371 9.05951 27.3473 9.26785 26.923 9.35226C26.4986 9.43666 26.0588 9.39334 25.6591 9.22778C25.2594 9.06221 24.9177 8.78183 24.6774 8.4221C24.437 8.06237 24.3087 7.63944 24.3087 7.20679C24.3087 6.62663 24.5392 6.07023 24.9494 5.65999C25.3597 5.24976 25.9161 5.01929 26.4962 5.01929Z" fill="#063A41"/>
<path d="M18.84 19.238H21.0275V30.1755C21.0275 31.0458 21.3732 31.8804 21.9885 32.4957C22.6039 33.1111 23.4385 33.4568 24.3087 33.4568C25.1167 33.455 25.8956 33.1551 26.4962 32.6146C27.0968 33.1551 27.8757 33.455 28.6837 33.4568C29.0568 33.4538 29.4267 33.3872 29.7775 33.2599V34.5505C29.7775 35.4208 30.1232 36.2554 30.7385 36.8707C31.3539 37.4861 32.1885 37.8318 33.0587 37.8318C33.8667 37.83 34.6456 37.5301 35.2462 36.9896C35.8468 37.5301 36.6257 37.83 37.4337 37.8318C38.304 37.8318 39.1386 37.4861 39.7539 36.8707C40.3693 36.2554 40.715 35.4208 40.715 34.5505V33.2599C41.0657 33.3872 41.4356 33.4538 41.8087 33.4568C42.6167 33.455 43.3956 33.1551 43.9962 32.6146C44.5968 33.1551 45.3757 33.455 46.1837 33.4568C47.054 33.4568 47.8886 33.1111 48.5039 32.4957C49.1193 31.8804 49.465 31.0458 49.465 30.1755V19.238H51.6525C52.5227 19.238 53.3573 18.8923 53.9727 18.277C54.588 17.6616 54.9337 16.827 54.9337 15.9568C54.9337 15.0865 54.588 14.2519 53.9727 13.6366C53.3573 13.0212 52.5227 12.6755 51.6525 12.6755H39.4681C39.5641 12.3187 39.6155 11.9513 39.6212 11.5818C39.6212 10.4215 39.1603 9.30867 38.3398 8.48819C37.5193 7.66772 36.4065 7.20679 35.2462 7.20679C34.0859 7.20679 32.9731 7.66772 32.1526 8.48819C31.3322 9.30867 30.8712 10.4215 30.8712 11.5818C30.8769 11.9513 30.9283 12.3187 31.0243 12.6755H18.84C17.9697 12.6755 17.1351 13.0212 16.5198 13.6366C15.9044 14.2519 15.5587 15.0865 15.5587 15.9568C15.5587 16.827 15.9044 17.6616 16.5198 18.277C17.1351 18.8923 17.9697 19.238 18.84 19.238ZM38.5275 34.5505C38.5275 34.8406 38.4122 35.1188 38.2071 35.3239C38.002 35.5291 37.7238 35.6443 37.4337 35.6443C37.1436 35.6443 36.8654 35.5291 36.6603 35.3239C36.4552 35.1188 36.34 34.8406 36.34 34.5505V29.0818C36.34 28.7917 36.2247 28.5135 36.0196 28.3084C35.8145 28.1033 35.5363 27.988 35.2462 27.988C34.9561 27.988 34.6779 28.1033 34.4728 28.3084C34.2677 28.5135 34.1525 28.7917 34.1525 29.0818V34.5505C34.1525 34.8406 34.0372 35.1188 33.8321 35.3239C33.627 35.5291 33.3488 35.6443 33.0587 35.6443C32.7686 35.6443 32.4904 35.5291 32.2853 35.3239C32.0802 35.1188 31.965 34.8406 31.965 34.5505V22.5193C31.965 22.2292 31.8497 21.951 31.6446 21.7459C31.4395 21.5408 31.1613 21.4255 30.8712 21.4255H27.59C27.2999 21.4255 27.0217 21.3103 26.8166 21.1052C26.6114 20.9001 26.4962 20.6219 26.4962 20.3318C26.4962 20.0417 26.6114 19.7635 26.8166 19.5584C27.0217 19.3533 27.2999 19.238 27.59 19.238H42.9025C43.1925 19.238 43.4707 19.3533 43.6759 19.5584C43.881 19.7635 43.9962 20.0417 43.9962 20.3318C43.9962 20.6219 43.881 20.9001 43.6759 21.1052C43.4707 21.3103 43.1925 21.4255 42.9025 21.4255H39.6212C39.3311 21.4255 39.0529 21.5408 38.8478 21.7459C38.6427 21.951 38.5275 22.2292 38.5275 22.5193V34.5505ZM35.2462 9.39429C35.6789 9.39429 36.1018 9.52258 36.4615 9.76295C36.8213 10.0033 37.1016 10.345 37.2672 10.7447C37.4328 11.1444 37.4761 11.5842 37.3917 12.0085C37.3073 12.4329 37.0989 12.8227 36.793 13.1286C36.4871 13.4345 36.0973 13.6428 35.673 13.7273C35.2486 13.8117 34.8088 13.7683 34.4091 13.6028C34.0094 13.4372 33.6677 13.1568 33.4274 12.7971C33.187 12.4374 33.0587 12.0144 33.0587 11.5818C33.0587 11.0016 33.2892 10.4452 33.6994 10.035C34.1097 9.62476 34.6661 9.39429 35.2462 9.39429ZM18.84 14.863H32.3806C33.1687 15.5679 34.1889 15.9576 35.2462 15.9576C36.3035 15.9576 37.3238 15.5679 38.1118 14.863H51.6525C51.9425 14.863 52.2207 14.9783 52.4259 15.1834C52.631 15.3885 52.7462 15.6667 52.7462 15.9568C52.7462 16.2469 52.631 16.5251 52.4259 16.7302C52.2207 16.9353 51.9425 17.0505 51.6525 17.0505H48.3712C48.0811 17.0505 47.8029 17.1658 47.5978 17.3709C47.3927 17.576 47.2775 17.8542 47.2775 18.1443V30.1755C47.2775 30.4656 47.1622 30.7438 46.9571 30.9489C46.752 31.1541 46.4738 31.2693 46.1837 31.2693C45.8936 31.2693 45.6154 31.1541 45.4103 30.9489C45.2052 30.7438 45.09 30.4656 45.09 30.1755V25.8005C45.09 25.5105 44.9747 25.2323 44.7696 25.0271C44.5645 24.822 44.2863 24.7068 43.9962 24.7068C43.7061 24.7068 43.4279 24.822 43.2228 25.0271C43.0177 25.2323 42.9025 25.5105 42.9025 25.8005V30.1755C42.9025 30.4656 42.7872 30.7438 42.5821 30.9489C42.377 31.1541 42.0988 31.2693 41.8087 31.2693C41.5186 31.2693 41.2404 31.1541 41.0353 30.9489C40.8302 30.7438 40.715 30.4656 40.715 30.1755V23.613H42.9025C43.7727 23.613 44.6073 23.2673 45.2227 22.652C45.838 22.0366 46.1837 21.202 46.1837 20.3318C46.1837 19.4615 45.838 18.6269 45.2227 18.0116C44.6073 17.3962 43.7727 17.0505 42.9025 17.0505H27.59C26.7197 17.0505 25.8851 17.3962 25.2698 18.0116C24.6544 18.6269 24.3087 19.4615 24.3087 20.3318C24.3087 21.202 24.6544 22.0366 25.2698 22.652C25.8851 23.2673 26.7197 23.613 27.59 23.613H29.7775V30.1755C29.7775 30.4656 29.6622 30.7438 29.4571 30.9489C29.252 31.1541 28.9738 31.2693 28.6837 31.2693C28.3936 31.2693 28.1154 31.1541 27.9103 30.9489C27.7052 30.7438 27.59 30.4656 27.59 30.1755V25.8005C27.59 25.5105 27.4747 25.2323 27.2696 25.0271C27.0645 24.822 26.7863 24.7068 26.4962 24.7068C26.2061 24.7068 25.9279 24.822 25.7228 25.0271C25.5177 25.2323 25.4025 25.5105 25.4025 25.8005V30.1755C25.4025 30.4656 25.2872 30.7438 25.0821 30.9489C24.877 31.1541 24.5988 31.2693 24.3087 31.2693C24.0186 31.2693 23.7404 31.1541 23.5353 30.9489C23.3302 30.7438 23.215 30.4656 23.215 30.1755V18.1443C23.215 17.8542 23.0997 17.576 22.8946 17.3709C22.6895 17.1658 22.4113 17.0505 22.1212 17.0505H18.84C18.5499 17.0505 18.2717 16.9353 18.0666 16.7302C17.8614 16.5251 17.7462 16.2469 17.7462 15.9568C17.7462 15.6667 17.8614 15.3885 18.0666 15.1834C18.2717 14.9783 18.5499 14.863 18.84 14.863Z" fill="#063A41"/>
</svg>
