<svg width="71" height="71" viewBox="0 0 71 71" fill="none" xmlns="http://www.w3.org/2000/svg">
<path d="M56.0276 52.0505C57.3494 52.0512 58.6486 52.394 59.7986 53.0457C60.9486 53.6974 61.9103 54.6357 62.5901 55.7693V42.4037C62.5901 41.4812 62.2236 40.5965 61.5714 39.9443C60.9191 39.292 60.0344 38.9255 59.112 38.9255H56.0276V52.0505Z" fill="#FBD044"/>
<path d="M16.6526 14.863H8.99634C7.78821 14.863 6.80884 15.8424 6.80884 17.0505C6.80884 18.2587 7.78821 19.238 8.99634 19.238H16.6526C17.8607 19.238 18.8401 18.2587 18.8401 17.0505C18.8401 15.8424 17.8607 14.863 16.6526 14.863Z" fill="#C0EBEC"/>
<path d="M54.387 29.0818H22.6682C21.7621 29.0818 21.0276 29.8163 21.0276 30.7224V62.4412C21.0276 63.3473 21.7621 64.0818 22.6682 64.0818H54.387C55.2931 64.0818 56.0276 63.3473 56.0276 62.4412V30.7224C56.0276 29.8163 55.2931 29.0818 54.387 29.0818Z" fill="#6CD689"/>
<path d="M56.0276 67.363C60.256 67.363 63.6838 63.9352 63.6838 59.7068C63.6838 55.4784 60.256 52.0505 56.0276 52.0505C51.7992 52.0505 48.3713 55.4784 48.3713 59.7068C48.3713 63.9352 51.7992 67.363 56.0276 67.363Z" fill="#C0EBEC"/>
<path d="M56.0276 62.988C57.8398 62.988 59.3088 61.519 59.3088 59.7068C59.3088 57.8946 57.8398 56.4255 56.0276 56.4255C54.2154 56.4255 52.7463 57.8946 52.7463 59.7068C52.7463 61.519 54.2154 62.988 56.0276 62.988Z" fill="#F2F2F2"/>
<path d="M22.1213 67.363C30.5782 67.363 37.4338 60.5074 37.4338 52.0505C37.4338 43.5937 30.5782 36.738 22.1213 36.738C13.6645 36.738 6.80884 43.5937 6.80884 52.0505C6.80884 60.5074 13.6645 67.363 22.1213 67.363Z" fill="#C0EBEC"/>
<path d="M22.1213 62.988C28.162 62.988 33.0588 58.0912 33.0588 52.0505C33.0588 46.0099 28.162 41.113 22.1213 41.113C16.0807 41.113 11.1838 46.0099 11.1838 52.0505C11.1838 58.0912 16.0807 62.988 22.1213 62.988Z" fill="#F2F2F2"/>
<path d="M26.4963 29.0818V27.7474C26.4969 26.0648 26.9963 24.4202 27.9313 23.0213C28.8664 21.6225 30.1952 20.5322 31.7497 19.8884C33.3042 19.2446 35.0147 19.0761 36.665 19.4042C38.3153 19.7323 39.8313 20.5423 41.0213 21.7318L42.7385 23.449C43.0952 23.8104 43.5631 24.0414 44.067 24.1049C44.5709 24.1684 45.0814 24.0606 45.5166 23.799L52.1995 19.7849C53.0045 19.2689 53.9801 19.0902 54.9157 19.2874C55.8514 19.4845 56.6719 20.0417 57.2003 20.8386C57.7287 21.6355 57.9226 22.6082 57.74 23.5468C57.5574 24.4854 57.0131 25.3145 56.2245 25.8552L51.7838 29.0818" fill="#FBD044"/>
<path d="M35.2463 14.863C38.2666 14.863 40.7151 12.4146 40.7151 9.39429C40.7151 6.37398 38.2666 3.92554 35.2463 3.92554C32.226 3.92554 29.7776 6.37398 29.7776 9.39429C29.7776 12.4146 32.226 14.863 35.2463 14.863Z" fill="#F2F2F2"/>
<path d="M22.1213 40.0193C19.7418 40.0193 17.4157 40.7249 15.4371 42.0469C13.4586 43.3689 11.9165 45.248 11.0059 47.4464C10.0953 49.6448 9.85704 52.0639 10.3213 54.3977C10.7855 56.7316 11.9314 58.8753 13.614 60.5579C15.2966 62.2405 17.4403 63.3864 19.7742 63.8506C22.108 64.3148 24.5271 64.0766 26.7255 63.166C28.9239 62.2553 30.803 60.7133 32.125 58.7347C33.447 56.7562 34.1526 54.4301 34.1526 52.0505C34.1526 48.8597 32.885 45.7995 30.6287 43.5432C28.3724 41.2869 25.3122 40.0193 22.1213 40.0193ZM22.1213 61.8943C20.1744 61.8943 18.2712 61.317 16.6524 60.2353C15.0337 59.1537 13.772 57.6163 13.0269 55.8176C12.2819 54.0189 12.0869 52.0396 12.4667 50.1301C12.8466 48.2206 13.7841 46.4666 15.1608 45.09C16.5374 43.7133 18.2914 42.7758 20.2009 42.3959C22.1104 42.0161 24.0897 42.211 25.8884 42.9561C27.6871 43.7011 29.2245 44.9628 30.3061 46.5816C31.3878 48.2004 31.9651 50.1036 31.9651 52.0505C31.9651 54.6613 30.928 57.1651 29.0819 59.0111C27.2359 60.8572 24.7321 61.8943 22.1213 61.8943Z" fill="#063A41"/>
<path d="M56.0276 55.3318C55.1623 55.3318 54.3164 55.5884 53.597 56.0691C52.8775 56.5498 52.3168 57.2331 51.9856 58.0325C51.6545 58.832 51.5678 59.7116 51.7367 60.5603C51.9055 61.409 52.3221 62.1885 52.934 62.8004C53.5459 63.4122 54.3254 63.8289 55.1741 63.9977C56.0227 64.1665 56.9024 64.0799 57.7018 63.7488C58.5013 63.4176 59.1845 62.8569 59.6653 62.1374C60.146 61.4179 60.4026 60.5721 60.4026 59.7068C60.4026 58.5465 59.9417 57.4337 59.1212 56.6132C58.3007 55.7927 57.1879 55.3318 56.0276 55.3318ZM56.0276 61.8943C55.5949 61.8943 55.172 61.766 54.8123 61.5256C54.4525 61.2853 54.1722 60.9436 54.0066 60.5439C53.841 60.1442 53.7977 59.7044 53.8821 59.28C53.9665 58.8557 54.1749 58.4659 54.4808 58.16C54.7867 57.8541 55.1765 57.6457 55.6008 57.5613C56.0252 57.4769 56.465 57.5202 56.8647 57.6858C57.2644 57.8514 57.6061 58.1317 57.8464 58.4915C58.0868 58.8512 58.2151 59.2741 58.2151 59.7068C58.2151 60.2869 57.9846 60.8433 57.5744 61.2536C57.1642 61.6638 56.6078 61.8943 56.0276 61.8943Z" fill="#063A41"/>
<path d="M19.934 30.7224V35.8084C17.4461 36.1386 15.0672 37.0352 12.9803 38.4292C10.8934 39.8232 9.1541 41.6773 7.89625 43.849C6.63839 46.0206 5.89551 48.4519 5.72478 50.9558C5.55405 53.4596 5.96 55.9692 6.91142 58.2916C7.86283 60.6139 9.33434 62.687 11.2127 64.3513C13.0911 66.0157 15.3262 67.2269 17.7462 67.8918C20.1662 68.5568 22.7064 68.6577 25.1715 68.1867C27.6366 67.7158 29.9608 66.6857 31.9652 65.1755H49.2465C50.3846 66.5714 51.9257 67.582 53.6595 68.0695C55.3933 68.557 57.2352 68.4976 58.934 67.8994C60.6328 67.3013 62.1056 66.1935 63.1515 64.7272C64.1973 63.261 64.7652 61.5078 64.7777 59.7068C64.7816 58.2289 64.4049 56.775 63.684 55.4849V42.3599C63.6696 41.1559 63.1819 40.0059 62.3264 39.1585C61.4709 38.3112 60.3162 37.8346 59.1121 37.8318H57.1215V30.7224C57.1173 30.1117 56.9095 29.5198 56.5312 29.0404C56.1528 28.5611 55.6254 28.2215 55.0324 28.0755L56.8699 26.7412C57.8121 26.0067 58.4427 24.9439 58.6359 23.765C58.829 22.586 58.5706 21.3776 57.912 20.3808C57.2535 19.384 56.2433 18.6722 55.0831 18.3874C53.9229 18.1026 52.6979 18.2657 51.6527 18.8443L44.9808 22.8583C44.754 22.993 44.4886 23.0479 44.2269 23.0142C43.9653 22.9805 43.7224 22.8602 43.5371 22.6724L41.809 20.9552C40.4665 19.6077 38.7541 18.6893 36.889 18.3163C35.0238 17.9433 33.0899 18.1326 31.3325 18.8601C29.5751 19.5877 28.0733 20.8208 27.0176 22.403C25.9619 23.9852 25.3998 25.8453 25.4027 27.7474V27.988H23.2152V20.8349C23.2126 19.7984 22.8806 18.7896 22.2673 17.954C21.6539 17.1185 20.7908 16.4995 19.8027 16.1865C19.6139 15.4947 19.2037 14.8839 18.6348 14.4474C18.0659 14.0108 17.3697 13.7727 16.6527 13.7693H8.99646C8.12621 13.7693 7.29162 14.115 6.67626 14.7303C6.06091 15.3457 5.71521 16.1803 5.71521 17.0505C5.71521 17.9208 6.06091 18.7554 6.67626 19.3707C7.29162 19.9861 8.12621 20.3318 8.99646 20.3318H16.6527C17.2712 20.33 17.8766 20.1535 18.3991 19.8226C18.9216 19.4917 19.3399 19.0199 19.6058 18.4615C20.0363 18.6903 20.3962 19.0323 20.6468 19.4505C20.8973 19.8687 21.029 20.3474 21.0277 20.8349V28.5458C20.6902 28.8 20.4159 29.1287 20.2262 29.5062C20.0365 29.8837 19.9365 30.2999 19.934 30.7224ZM16.6527 18.1443H8.99646C8.70638 18.1443 8.42818 18.0291 8.22306 17.8239C8.01794 17.6188 7.90271 17.3406 7.90271 17.0505C7.90271 16.7605 8.01794 16.4823 8.22306 16.2771C8.42818 16.072 8.70638 15.9568 8.99646 15.9568H16.6527C16.9428 15.9568 17.221 16.072 17.4261 16.2771C17.6312 16.4823 17.7465 16.7605 17.7465 17.0505C17.7465 17.3406 17.6312 17.6188 17.4261 17.8239C17.221 18.0291 16.9428 18.1443 16.6527 18.1443ZM7.90271 52.0505C7.90271 49.2383 8.73662 46.4893 10.299 44.151C11.8614 41.8128 14.082 39.9903 16.6802 38.9141C19.2783 37.8379 22.1372 37.5564 24.8954 38.105C27.6536 38.6536 30.1871 40.0078 32.1756 41.9964C34.1642 43.9849 35.5184 46.5184 36.067 49.2766C36.6156 52.0348 36.3341 54.8937 35.2579 57.4918C34.1817 60.09 32.3592 62.3106 30.021 63.873C27.6827 65.4354 24.9337 66.2693 22.1215 66.2693C18.3504 66.2693 14.7338 64.7712 12.0673 62.1047C9.40075 59.4382 7.90271 55.8216 7.90271 52.0505ZM34.3168 62.988C36.4263 60.6295 37.8088 57.7113 38.2976 54.585C38.7864 51.4587 38.3608 48.2577 37.0719 45.3678C35.783 42.4779 33.6859 40.0224 31.0333 38.2972C28.3807 36.572 25.2857 35.6507 22.1215 35.6443V30.7224C22.1215 30.5774 22.1791 30.4383 22.2816 30.3357C22.3842 30.2332 22.5233 30.1755 22.6683 30.1755H54.3871C54.5321 30.1755 54.6712 30.2332 54.7738 30.3357C54.8763 30.4383 54.934 30.5774 54.934 30.7224V51.0333C52.8208 51.2996 50.8773 52.3274 49.4678 53.9242C48.0583 55.5209 47.2796 57.5769 47.2777 59.7068C47.2771 60.8321 47.4963 61.9467 47.923 62.988H34.3168ZM56.0277 66.2693C54.7298 66.2693 53.461 65.8844 52.3818 65.1633C51.3026 64.4422 50.4614 63.4173 49.9647 62.2181C49.468 61.019 49.3381 59.6995 49.5913 58.4265C49.8445 57.1535 50.4695 55.9842 51.3873 55.0664C52.3051 54.1486 53.4744 53.5236 54.7474 53.2704C56.0204 53.0172 57.3399 53.1471 58.5391 53.6438C59.7382 54.1405 60.7631 54.9817 61.4842 56.0609C62.2053 57.1401 62.5902 58.4088 62.5902 59.7068C62.5902 61.4473 61.8988 63.1165 60.6681 64.3472C59.4374 65.5779 57.7682 66.2693 56.0277 66.2693ZM59.1121 40.0193C59.7436 40.0222 60.3484 40.2743 60.7949 40.7208C61.2414 41.1674 61.4936 41.7722 61.4965 42.4037V52.8818C60.2364 51.8741 58.7223 51.2344 57.1215 51.0333V40.0193H59.1121ZM27.5902 27.7474C27.5889 26.2807 28.0233 24.8466 28.8382 23.627C29.6532 22.4075 30.8119 21.4575 32.1675 20.8974C33.5231 20.3374 35.0146 20.1925 36.4526 20.4813C37.8906 20.77 39.2105 21.4793 40.2449 22.5193L41.9621 24.2365C42.495 24.7675 43.1893 25.1061 43.9358 25.1992C44.6823 25.2923 45.4386 25.1344 46.0855 24.7505L52.7465 20.7255C53.2725 20.4145 53.8925 20.302 54.4943 20.4083C55.0962 20.5146 55.6401 20.8328 56.0277 21.3052C56.3862 21.7606 56.5825 22.3226 56.5855 22.9021C56.5842 23.3095 56.484 23.7104 56.2935 24.0705C56.103 24.4306 55.8278 24.739 55.4918 24.9693L51.423 27.988H27.5902V27.7474Z" fill="#063A41"/>
<path d="M41.8088 9.39429C41.8088 8.09635 41.424 6.82756 40.7029 5.74836C39.9818 4.66916 38.9568 3.82803 37.7577 3.33133C36.5586 2.83463 35.2391 2.70467 33.9661 2.95789C32.6931 3.2111 31.5237 3.83612 30.606 4.7539C29.6882 5.67168 29.0632 6.84101 28.8099 8.11401C28.5567 9.38701 28.6867 10.7065 29.1834 11.9057C29.6801 13.1048 30.5212 14.1297 31.6004 14.8508C32.6796 15.5719 33.9484 15.9568 35.2463 15.9568C36.9868 15.9568 38.656 15.2654 39.8867 14.0347C41.1174 12.804 41.8088 11.1348 41.8088 9.39429ZM30.8713 9.39429C30.8713 8.529 31.1279 7.68314 31.6087 6.96367C32.0894 6.24421 32.7727 5.68345 33.5721 5.35232C34.3715 5.02118 35.2512 4.93454 36.0999 5.10335C36.9485 5.27217 37.7281 5.68884 38.3399 6.3007C38.9518 6.91255 39.3685 7.6921 39.5373 8.54077C39.7061 9.38944 39.6194 10.2691 39.2883 11.0685C38.9572 11.868 38.3964 12.5512 37.677 13.032C36.9575 13.5127 36.1116 13.7693 35.2463 13.7693C34.086 13.7693 32.9732 13.3084 32.1528 12.4879C31.3323 11.6674 30.8713 10.5546 30.8713 9.39429Z" fill="#063A41"/>
</svg>
