<svg width="71" height="71" viewBox="0 0 71 71" fill="none" xmlns="http://www.w3.org/2000/svg">
<path d="M40.7151 36.7379L51.4995 25.6145L48.4041 22.5192L66.1885 23.2957L66.9651 41.0801L63.8698 37.9848L51.6307 50.2239" fill="#FBD044"/>
<path d="M18.862 50.2239L6.6229 37.9848L3.52759 41.0801L4.30415 23.2957L22.0885 22.5192L18.9932 25.6145L29.7776 36.7379" fill="#FBD044"/>
<path d="M26.4963 37.0879V15.9567H22.1213L35.2463 3.92542L48.3713 15.9567H43.9963V37.0879" fill="#F2F2F2"/>
<path d="M35.2463 67.3629C44.3073 67.3629 51.6526 60.0176 51.6526 50.9567C51.6526 41.8957 44.3073 34.5504 35.2463 34.5504C26.1854 34.5504 18.8401 41.8957 18.8401 50.9567C18.8401 60.0176 26.1854 67.3629 35.2463 67.3629Z" fill="#6CD689"/>
<path d="M36.4605 49.8629H36.3401V44.3942H39.5011C39.7912 44.3942 40.0694 44.2789 40.2745 44.0738C40.4796 43.8687 40.5948 43.5905 40.5948 43.3004C40.5948 43.0103 40.4796 42.7321 40.2745 42.527C40.0694 42.3219 39.7912 42.2067 39.5011 42.2067H36.3401V38.9254C36.3401 38.6353 36.2249 38.3571 36.0198 38.152C35.8147 37.9469 35.5365 37.8317 35.2464 37.8317C34.9563 37.8317 34.6781 37.9469 34.473 38.152C34.2679 38.3571 34.1526 38.6353 34.1526 38.9254V42.2067H34.0323C33.347 42.142 32.6557 42.2211 32.0027 42.4391C31.3497 42.657 30.7494 43.0089 30.2403 43.4722C29.7312 43.9356 29.3244 44.5001 29.0461 45.1297C28.7678 45.7593 28.624 46.4401 28.624 47.1285C28.624 47.8169 28.7678 48.4977 29.0461 49.1274C29.3244 49.757 29.7312 50.3215 30.2403 50.7849C30.7494 51.2482 31.3497 51.6001 32.0027 51.818C32.6557 52.0359 33.347 52.1151 34.0323 52.0504H34.1526V57.5192H30.9917C30.7016 57.5192 30.4234 57.6344 30.2183 57.8395C30.0132 58.0446 29.898 58.3228 29.898 58.6129C29.898 58.903 30.0132 59.1812 30.2183 59.3863C30.4234 59.5914 30.7016 59.7067 30.9917 59.7067H34.1526V62.9879C34.1526 63.278 34.2679 63.5562 34.473 63.7613C34.6781 63.9664 34.9563 64.0817 35.2464 64.0817C35.5365 64.0817 35.8147 63.9664 36.0198 63.7613C36.2249 63.5562 36.3401 63.278 36.3401 62.9879V59.7067H36.4605C37.1458 59.7714 37.8371 59.6922 38.4901 59.4743C39.1431 59.2563 39.7433 58.9044 40.2525 58.4411C40.7616 57.9778 41.1683 57.4132 41.4467 56.7836C41.725 56.154 41.8688 55.4732 41.8688 54.7848C41.8688 54.0964 41.725 53.4156 41.4467 52.786C41.1683 52.1564 40.7616 51.5918 40.2525 51.1285C39.7433 50.6651 39.1431 50.3132 38.4901 50.0953C37.8371 49.8774 37.1458 49.7982 36.4605 49.8629ZM34.0323 49.8629C33.2518 49.9142 32.4824 49.6561 31.8908 49.1443C31.2992 48.6325 30.933 47.9084 30.8714 47.1285C30.933 46.3487 31.2992 45.6246 31.8908 45.1128C32.4824 44.601 33.2518 44.3428 34.0323 44.3942H34.1526V49.8629H34.0323ZM36.4605 57.5192H36.3401V52.0504H36.4605C36.855 51.9891 37.2582 52.0139 37.6423 52.1232C38.0264 52.2324 38.3823 52.4235 38.6856 52.6832C38.9888 52.943 39.2323 53.2654 39.3992 53.6281C39.5661 53.9909 39.6525 54.3855 39.6525 54.7848C39.6525 55.1841 39.5661 55.5787 39.3992 55.9415C39.2323 56.3042 38.9888 56.6266 38.6856 56.8863C38.3823 57.1461 38.0264 57.3372 37.6423 57.4464C37.2582 57.5557 36.855 57.5805 36.4605 57.5192Z" fill="#063A41"/>
<path d="M66.2323 22.202L48.4479 21.4254C48.2269 21.415 48.008 21.4719 47.82 21.5885C47.632 21.7051 47.4838 21.876 47.3949 22.0786C47.3061 22.2812 47.2807 22.506 47.3223 22.7233C47.3638 22.9406 47.4703 23.1402 47.6276 23.2957L49.9573 25.6145L45.0901 30.4816V17.0504H48.3713C48.5916 17.0497 48.8066 16.9826 48.9881 16.8577C49.1696 16.7328 49.3092 16.5559 49.3885 16.3504C49.4693 16.1456 49.4864 15.9212 49.4376 15.7066C49.3888 15.4919 49.2764 15.297 49.1151 15.1473L35.9901 3.11602C35.7878 2.92845 35.5222 2.82422 35.2463 2.82422C34.9705 2.82422 34.7048 2.92845 34.5026 3.11602L21.3776 15.1473C21.2162 15.297 21.1038 15.4919 21.055 15.7066C21.0062 15.9212 21.0233 16.1456 21.1041 16.3504C21.1835 16.5559 21.323 16.7328 21.5045 16.8577C21.686 16.9826 21.901 17.0497 22.1213 17.0504H25.4026V30.4816L20.5354 25.6145L22.8651 23.2957C23.0213 23.1401 23.1268 22.9409 23.1678 22.7242C23.2088 22.5076 23.1833 22.2836 23.0948 22.0816C23.004 21.8716 22.8497 21.6953 22.6534 21.5776C22.4572 21.4599 22.2291 21.4066 22.001 21.4254L4.21663 22.202C3.92655 22.202 3.64835 22.3172 3.44324 22.5223C3.23812 22.7274 3.12288 23.0056 3.12288 23.2957L2.43382 41.0363C2.42344 41.2573 2.48032 41.4762 2.59694 41.6642C2.71357 41.8522 2.88446 42.0004 3.08705 42.0893C3.28965 42.1781 3.51442 42.2035 3.73171 42.1619C3.94901 42.1204 4.14859 42.014 4.30413 41.8566L6.62288 39.527L17.7463 50.6723V50.9566C17.7463 55.5979 19.5901 60.0491 22.872 63.331C26.1538 66.6129 30.605 68.4566 35.2463 68.4566C39.8876 68.4566 44.3388 66.6129 47.6207 63.331C50.9026 60.0491 52.7463 55.5979 52.7463 50.9566C52.7463 50.8582 52.7463 50.7707 52.7463 50.6723L63.8698 39.527L66.1885 41.8566C66.3441 42.014 66.5436 42.1204 66.7609 42.1619C66.9782 42.2035 67.203 42.1781 67.4056 42.0893C67.6082 42.0004 67.7791 41.8522 67.8957 41.6642C68.0123 41.4762 68.0692 41.2573 68.0588 41.0363L67.2823 23.252C67.2715 22.9769 67.1574 22.7161 66.9627 22.5215C66.7681 22.3268 66.5073 22.2128 66.2323 22.202ZM24.9323 14.8629L35.2463 5.41289L45.5604 14.8629H43.9963C43.7062 14.8629 43.428 14.9781 43.2229 15.1832C43.0178 15.3884 42.9026 15.6666 42.9026 15.9566V35.2395C41.8517 34.7299 40.7525 34.3269 39.6213 34.0363V15.9566C39.6213 15.6666 39.5061 15.3884 39.301 15.1832C39.0959 14.9781 38.8177 14.8629 38.5276 14.8629C38.2375 14.8629 37.9593 14.9781 37.7542 15.1832C37.5491 15.3884 37.4338 15.6666 37.4338 15.9566V33.6098C35.9826 33.4057 34.51 33.4057 33.0588 33.6098V15.9566C33.0588 15.6666 32.9436 15.3884 32.7385 15.1832C32.5334 14.9781 32.2552 14.8629 31.9651 14.8629C31.675 14.8629 31.3968 14.9781 31.1917 15.1832C30.9866 15.3884 30.8713 15.6666 30.8713 15.9566V34.0363C29.7402 34.3269 28.6409 34.7299 27.5901 35.2395V15.9566C27.5901 15.6666 27.4748 15.3884 27.2697 15.1832C27.0646 14.9781 26.7864 14.8629 26.4963 14.8629H24.9323ZM7.43226 37.2082C7.33058 37.1057 7.20961 37.0243 7.07633 36.9688C6.94304 36.9133 6.80008 36.8847 6.6557 36.8847C6.51131 36.8847 6.36835 36.9133 6.23507 36.9688C6.10178 37.0243 5.98081 37.1057 5.87913 37.2082L4.78538 38.302L5.39788 24.3348L19.3651 23.7223L18.2713 24.816C18.1688 24.9177 18.0874 25.0387 18.0319 25.1719C17.9764 25.3052 17.9478 25.4482 17.9478 25.5926C17.9478 25.737 17.9764 25.8799 18.0319 26.0132C18.0874 26.1465 18.1688 26.2675 18.2713 26.3691L25.4026 33.566V36.4973C23.4835 37.8064 21.8443 39.4844 20.5805 41.4336C19.3167 43.3828 18.4536 45.5642 18.0416 47.8504L7.43226 37.2082ZM35.2463 66.2691C32.2178 66.2691 29.2573 65.3711 26.7392 63.6885C24.221 62.006 22.2584 59.6145 21.0994 56.8165C19.9404 54.0185 19.6372 50.9397 20.228 47.9693C20.8189 44.999 22.2773 42.2706 24.4187 40.1291C26.5602 37.9876 29.2887 36.5292 32.259 35.9384C35.2293 35.3475 38.3082 35.6508 41.1062 36.8097C43.9042 37.9687 46.2956 39.9313 47.9782 42.4495C49.6608 44.9676 50.5588 47.9281 50.5588 50.9566C50.5588 55.0178 48.9455 58.9126 46.0739 61.7842C43.2022 64.6559 39.3074 66.2691 35.2463 66.2691ZM64.6463 37.2082C64.5446 37.1057 64.4237 37.0243 64.2904 36.9688C64.1571 36.9133 64.0141 36.8847 63.8698 36.8847C63.7254 36.8847 63.5824 36.9133 63.4491 36.9688C63.3158 37.0243 63.1949 37.1057 63.0932 37.2082L52.451 47.8504C52.039 45.5642 51.176 43.3828 49.9122 41.4336C48.6484 39.4844 47.0091 37.8064 45.0901 36.4973V33.566L52.276 26.391C52.3785 26.2893 52.4599 26.1684 52.5154 26.0351C52.5709 25.9018 52.5995 25.7588 52.5995 25.6145C52.5995 25.4701 52.5709 25.3271 52.5154 25.1938C52.4599 25.0605 52.3785 24.9396 52.276 24.8379L51.1823 23.7441L65.1494 24.3566L65.762 38.3238L64.6463 37.2082Z" fill="#063A41"/>
</svg>
