<svg width="71" height="71" viewBox="0 0 71 71" fill="none" xmlns="http://www.w3.org/2000/svg">
<path d="M66.9651 26.238C66.2542 20.9592 63.6492 16.1187 59.635 12.6176C55.6209 9.11656 50.4712 7.1936 45.1448 7.20676H25.4026C22.5054 7.19379 19.6341 7.75334 16.9538 8.85325C14.2734 9.95317 11.8368 11.5718 9.78384 13.6161C6.33839 17.0268 4.13564 21.4939 3.52759 26.3036C4.58624 25.0642 5.9113 24.0801 7.40375 23.4248C8.89619 22.7695 10.5174 22.4599 12.1463 22.5193C16.587 22.5193 20.3495 24.7068 21.662 27.8021C24.8666 25.9099 29.7776 24.7068 35.2463 24.7068C40.7151 24.7068 45.6588 25.9208 48.8745 27.824C50.176 24.7068 53.9385 22.5193 58.3901 22.5193C60.0045 22.4657 61.6107 22.7705 63.0934 23.4116C64.576 24.0527 65.8983 25.0142 66.9651 26.2271V26.238Z" fill="#FBD044"/>
<path d="M21.662 27.813C20.3495 24.7068 16.587 22.5193 12.1463 22.5193C10.5174 22.4599 8.89619 22.7695 7.40375 23.4248C5.9113 24.0801 4.58624 25.0642 3.52759 26.3036C4.13564 21.4939 6.33839 17.0268 9.78384 13.6161C11.8368 11.5718 14.2734 9.95317 16.9538 8.85325C19.6341 7.75334 22.5054 7.19379 25.4026 7.20676H35.2463C28.301 10.663 23.2151 18.0458 22.1213 26.8943" fill="#6CD689"/>
<path d="M48.3713 26.8943C47.2776 18.0459 42.1917 10.6631 35.2463 7.20683H45.0901C50.9227 7.19517 56.5211 9.50064 60.6542 13.6162C64.1197 17.019 66.3421 21.487 66.9651 26.3037C65.9064 25.0643 64.5814 24.0802 63.0889 23.4249C61.5965 22.7696 59.9752 22.46 58.3463 22.5193C53.9057 22.5193 50.1432 24.7068 48.8307 27.8021" fill="#6CD689"/>
<path d="M21.0276 48.7693H5.71509C5.13493 48.7693 4.57853 48.9998 4.16829 49.41C3.75806 49.8202 3.52759 50.3766 3.52759 50.9568C3.52759 51.5369 3.75806 52.0933 4.16829 52.5036C4.57853 52.9138 5.13493 53.1443 5.71509 53.1443H8.99634V65.1755C8.99634 65.7557 9.22681 66.3121 9.63704 66.7223C10.0473 67.1326 10.6037 67.363 11.1838 67.363C11.764 67.363 12.3204 67.1326 12.7306 66.7223C13.1409 66.3121 13.3713 65.7557 13.3713 65.1755C13.3713 65.7557 13.6018 66.3121 14.012 66.7223C14.4223 67.1326 14.9787 67.363 15.5588 67.363C16.139 67.363 16.6954 67.1326 17.1056 66.7223C17.5159 66.3121 17.7463 65.7557 17.7463 65.1755V53.1443H21.0276C21.6077 53.1443 22.1641 52.9138 22.5744 52.5036C22.9846 52.0933 23.2151 51.5369 23.2151 50.9568C23.2151 50.3766 22.9846 49.8202 22.5744 49.41C22.1641 48.9998 21.6077 48.7693 21.0276 48.7693Z" fill="#F2F2F2"/>
<path d="M13.3713 45.488C15.1835 45.488 16.6526 44.019 16.6526 42.2068C16.6526 40.3946 15.1835 38.9255 13.3713 38.9255C11.5592 38.9255 10.0901 40.3946 10.0901 42.2068C10.0901 44.019 11.5592 45.488 13.3713 45.488Z" fill="#F2F2F2"/>
<path d="M64.7776 48.7693H49.4651C48.8849 48.7693 48.3285 48.9998 47.9183 49.41C47.5081 49.8202 47.2776 50.3766 47.2776 50.9568C47.2776 51.5369 47.5081 52.0933 47.9183 52.5036C48.3285 52.9138 48.8849 53.1443 49.4651 53.1443H52.7463V65.1755C52.7463 65.7557 52.9768 66.3121 53.387 66.7223C53.7973 67.1326 54.3537 67.363 54.9338 67.363C55.514 67.363 56.0704 67.1326 56.4806 66.7223C56.8909 66.3121 57.1213 65.7557 57.1213 65.1755C57.1213 65.7557 57.3518 66.3121 57.762 66.7223C58.1723 67.1326 58.7287 67.363 59.3088 67.363C59.889 67.363 60.4454 67.1326 60.8556 66.7223C61.2659 66.3121 61.4963 65.7557 61.4963 65.1755V53.1443H64.7776C65.3577 53.1443 65.9142 52.9138 66.3244 52.5036C66.7346 52.0933 66.9651 51.5369 66.9651 50.9568C66.9651 50.3766 66.7346 49.8202 66.3244 49.41C65.9142 48.9998 65.3577 48.7693 64.7776 48.7693Z" fill="#F2F2F2"/>
<path d="M57.1213 45.488C58.9335 45.488 60.4026 44.019 60.4026 42.2068C60.4026 40.3946 58.9335 38.9255 57.1213 38.9255C55.3092 38.9255 53.8401 40.3946 53.8401 42.2068C53.8401 44.019 55.3092 45.488 57.1213 45.488Z" fill="#F2F2F2"/>
<path d="M42.9026 48.7693H27.5901C27.0099 48.7693 26.4535 48.9998 26.0433 49.41C25.6331 49.8202 25.4026 50.3766 25.4026 50.9568C25.4026 51.5369 25.6331 52.0933 26.0433 52.5036C26.4535 52.9138 27.0099 53.1443 27.5901 53.1443H30.8713V65.1755C30.8713 65.7557 31.1018 66.3121 31.512 66.7223C31.9223 67.1326 32.4787 67.363 33.0588 67.363C33.639 67.363 34.1954 67.1326 34.6056 66.7223C35.0159 66.3121 35.2463 65.7557 35.2463 65.1755C35.2463 65.7557 35.4768 66.3121 35.887 66.7223C36.2973 67.1326 36.8537 67.363 37.4338 67.363C38.014 67.363 38.5704 67.1326 38.9806 66.7223C39.3909 66.3121 39.6213 65.7557 39.6213 65.1755V53.1443H42.9026C43.4827 53.1443 44.0392 52.9138 44.4494 52.5036C44.8596 52.0933 45.0901 51.5369 45.0901 50.9568C45.0901 50.3766 44.8596 49.8202 44.4494 49.41C44.0392 48.9998 43.4827 48.7693 42.9026 48.7693Z" fill="#6CD689"/>
<path d="M35.2463 45.488C37.0585 45.488 38.5276 44.019 38.5276 42.2068C38.5276 40.3946 37.0585 38.9255 35.2463 38.9255C33.4342 38.9255 31.9651 40.3946 31.9651 42.2068C31.9651 44.019 33.4342 45.488 35.2463 45.488Z" fill="#6CD689"/>
<path d="M68.0587 26.2052C67.3264 20.6465 64.5983 15.5436 60.3827 11.8472C56.167 8.15069 50.7514 6.11276 45.1447 6.11304H36.34V3.92554C36.34 3.63546 36.2248 3.35726 36.0196 3.15214C35.8145 2.94702 35.5363 2.83179 35.2462 2.83179C34.9562 2.83179 34.678 2.94702 34.4729 3.15214C34.2677 3.35726 34.1525 3.63546 34.1525 3.92554V6.11304H25.4025C22.3585 6.09115 19.3406 6.67455 16.5241 7.82931C13.7076 8.98408 11.1487 10.6872 8.99625 12.8396C5.36888 16.4174 3.05639 21.1156 2.43375 26.1724C2.40354 26.4105 2.45249 26.652 2.57306 26.8595C2.69363 27.067 2.87912 27.2292 3.10093 27.3208C3.32563 27.4123 3.57436 27.4265 3.808 27.3612C4.04164 27.2959 4.24693 27.1547 4.39156 26.9599C5.34978 25.8554 6.5445 24.981 7.88701 24.4016C9.22951 23.8222 10.6853 23.5527 12.1462 23.613C15.9525 23.613 19.4306 25.4833 20.6228 28.163C20.6771 28.3239 20.7682 28.47 20.8887 28.5896C21.0093 28.7092 21.156 28.7991 21.3173 28.8522C21.4786 28.9052 21.6501 28.92 21.8181 28.8953C21.9861 28.8706 22.1461 28.8071 22.2853 28.7099C25.9527 26.8084 30.0215 25.8109 34.1525 25.8005V34.5505C34.1525 34.8406 34.2677 35.1188 34.4729 35.3239C34.678 35.5291 34.9562 35.6443 35.2462 35.6443C35.5363 35.6443 35.8145 35.5291 36.0196 35.3239C36.2248 35.1188 36.34 34.8406 36.34 34.5505V25.8005C40.5286 25.7891 44.6573 26.795 48.3712 28.7318C48.5413 28.8291 48.7332 28.8818 48.9291 28.8849C49.0477 28.8827 49.1654 28.8643 49.2791 28.8302C49.4256 28.7804 49.5598 28.7 49.6729 28.5944C49.786 28.4888 49.8755 28.3604 49.9353 28.2177C51.0947 25.4833 54.5947 23.5802 58.4447 23.5802C59.8772 23.5326 61.3031 23.7954 62.6246 24.3504C63.9461 24.9054 65.132 25.7397 66.1009 26.7958C66.2349 26.9708 66.4187 27.1012 66.6281 27.17C66.8375 27.2387 67.0627 27.2426 67.2744 27.1811C67.486 27.1196 67.6741 26.9956 67.8141 26.8254C67.9541 26.6552 68.0393 26.4466 68.0587 26.2271V26.2052ZM35.2462 23.613C31.2031 23.5575 27.1865 24.274 23.4119 25.724C24.7134 18.199 29.1431 11.7021 35.2462 8.45366C41.3494 11.7349 45.7791 18.199 47.0806 25.724C43.306 24.274 39.2894 23.5575 35.2462 23.613ZM12.1462 21.4255C9.71487 21.4048 7.32553 22.0599 5.24469 23.3177C6.22168 19.936 8.05222 16.8625 10.5603 14.3927C12.5071 12.4444 14.8218 10.9024 17.3698 9.85655C19.9178 8.81068 22.6483 8.28176 25.4025 8.30054H31.4619C26.0726 12.4567 22.4546 18.4972 21.3337 25.2099C20.1563 23.9663 18.7288 22.9861 17.1453 22.3338C15.5617 21.6815 13.858 21.372 12.1462 21.4255ZM58.39 21.4255C56.6769 21.3798 54.9735 21.6973 53.3918 22.3571C51.8102 23.0169 50.3862 24.0041 49.2134 25.2537C48.1051 18.5243 44.4856 12.4658 39.0853 8.30054H45.1447C49.657 8.29869 54.0493 9.75412 57.6677 12.4502C61.2861 15.1462 63.937 18.9387 65.2259 23.263C63.1599 22.0329 60.7944 21.397 58.39 21.4255Z" fill="#063A41"/>
<path d="M39.6213 42.2068C39.6213 41.3415 39.3648 40.4956 38.884 39.7762C38.4033 39.0567 37.72 38.4959 36.9206 38.1648C36.1212 37.8337 35.2415 37.747 34.3928 37.9159C33.5442 38.0847 32.7646 38.5013 32.1527 39.1132C31.5409 39.7251 31.1242 40.5046 30.9554 41.3533C30.7866 42.2019 30.8732 43.0816 31.2044 43.881C31.5355 44.6805 32.0963 45.3637 32.8157 45.8445C33.5352 46.3252 34.381 46.5818 35.2463 46.5818C36.4067 46.5818 37.5195 46.1209 38.3399 45.3004C39.1604 44.4799 39.6213 43.3671 39.6213 42.2068ZM33.0588 42.2068C33.0588 41.7741 33.1871 41.3512 33.4275 40.9915C33.6679 40.6317 34.0095 40.3514 34.4092 40.1858C34.8089 40.0202 35.2488 39.9769 35.6731 40.0613C36.0974 40.1457 36.4872 40.3541 36.7931 40.66C37.0991 40.9659 37.3074 41.3557 37.3918 41.78C37.4762 42.2044 37.4329 42.6442 37.2673 43.0439C37.1018 43.4436 36.8214 43.7853 36.4617 44.0256C36.1019 44.266 35.679 44.3943 35.2463 44.3943C34.6662 44.3943 34.1098 44.1638 33.6995 43.7536C33.2893 43.3434 33.0588 42.787 33.0588 42.2068Z" fill="#063A41"/>
<path d="M42.9026 47.6755H27.5901C26.7198 47.6755 25.8852 48.0212 25.2699 48.6366C24.6545 49.2519 24.3088 50.0865 24.3088 50.9568C24.3088 51.827 24.6545 52.6616 25.2699 53.277C25.8852 53.8923 26.7198 54.238 27.5901 54.238H29.7776V65.1755C29.7776 66.0458 30.1233 66.8804 30.7386 67.4957C31.354 68.1111 32.1886 68.4568 33.0588 68.4568C33.8668 68.455 34.6457 68.1551 35.2463 67.6146C35.8469 68.1551 36.6258 68.455 37.4338 68.4568C38.3041 68.4568 39.1387 68.1111 39.754 67.4957C40.3694 66.8804 40.7151 66.0458 40.7151 65.1755V54.238H42.9026C43.7728 54.238 44.6074 53.8923 45.2228 53.277C45.8381 52.6616 46.1838 51.827 46.1838 50.9568C46.1838 50.0865 45.8381 49.2519 45.2228 48.6366C44.6074 48.0212 43.7728 47.6755 42.9026 47.6755ZM42.9026 52.0505H39.6213C39.3313 52.0505 39.0531 52.1658 38.8479 52.3709C38.6428 52.576 38.5276 52.8542 38.5276 53.1443V65.1755C38.5276 65.4656 38.4124 65.7438 38.2072 65.9489C38.0021 66.1541 37.7239 66.2693 37.4338 66.2693C37.1438 66.2693 36.8656 66.1541 36.6604 65.9489C36.4553 65.7438 36.3401 65.4656 36.3401 65.1755V59.7068C36.3401 59.4167 36.2249 59.1385 36.0197 58.9334C35.8146 58.7283 35.5364 58.613 35.2463 58.613C34.9563 58.613 34.6781 58.7283 34.4729 58.9334C34.2678 59.1385 34.1526 59.4167 34.1526 59.7068V65.1755C34.1526 65.4656 34.0374 65.7438 33.8322 65.9489C33.6271 66.1541 33.3489 66.2693 33.0588 66.2693C32.7688 66.2693 32.4906 66.1541 32.2854 65.9489C32.0803 65.7438 31.9651 65.4656 31.9651 65.1755V53.1443C31.9651 52.8542 31.8499 52.576 31.6447 52.3709C31.4396 52.1658 31.1614 52.0505 30.8713 52.0505H27.5901C27.3 52.0505 27.0218 51.9353 26.8167 51.7302C26.6116 51.5251 26.4963 51.2469 26.4963 50.9568C26.4963 50.6667 26.6116 50.3885 26.8167 50.1834C27.0218 49.9783 27.3 49.863 27.5901 49.863H42.9026C43.1927 49.863 43.4709 49.9783 43.676 50.1834C43.8811 50.3885 43.9963 50.6667 43.9963 50.9568C43.9963 51.2469 43.8811 51.5251 43.676 51.7302C43.4709 51.9353 43.1927 52.0505 42.9026 52.0505Z" fill="#063A41"/>
<path d="M61.4963 42.2068C61.4963 41.3415 61.2398 40.4956 60.759 39.7762C60.2783 39.0567 59.595 38.4959 58.7956 38.1648C57.9962 37.8337 57.1165 37.747 56.2678 37.9159C55.4192 38.0847 54.6396 38.5013 54.0277 39.1132C53.4159 39.7251 52.9992 40.5046 52.8304 41.3533C52.6616 42.2019 52.7482 43.0816 53.0794 43.881C53.4105 44.6805 53.9713 45.3637 54.6907 45.8445C55.4102 46.3252 56.256 46.5818 57.1213 46.5818C58.2817 46.5818 59.3945 46.1209 60.2149 45.3004C61.0354 44.4799 61.4963 43.3671 61.4963 42.2068ZM54.9338 42.2068C54.9338 41.7741 55.0621 41.3512 55.3025 40.9915C55.5429 40.6317 55.8845 40.3514 56.2842 40.1858C56.6839 40.0202 57.1238 39.9769 57.5481 40.0613C57.9724 40.1457 58.3622 40.3541 58.6681 40.66C58.9741 40.9659 59.1824 41.3557 59.2668 41.78C59.3512 42.2044 59.3079 42.6442 59.1423 43.0439C58.9768 43.4436 58.6964 43.7853 58.3367 44.0256C57.9769 44.266 57.554 44.3943 57.1213 44.3943C56.5412 44.3943 55.9848 44.1638 55.5745 43.7536C55.1643 43.3434 54.9338 42.787 54.9338 42.2068Z" fill="#063A41"/>
<path d="M64.7776 47.6755H49.4651C48.5948 47.6755 47.7602 48.0212 47.1449 48.6366C46.5295 49.2519 46.1838 50.0865 46.1838 50.9568C46.1838 51.827 46.5295 52.6616 47.1449 53.277C47.7602 53.8923 48.5948 54.238 49.4651 54.238H51.6526V65.1755C51.6526 66.0458 51.9983 66.8804 52.6136 67.4957C53.229 68.1111 54.0636 68.4568 54.9338 68.4568C55.7418 68.455 56.5207 68.1551 57.1213 67.6146C57.7219 68.1551 58.5008 68.455 59.3088 68.4568C60.1791 68.4568 61.0137 68.1111 61.629 67.4957C62.2444 66.8804 62.5901 66.0458 62.5901 65.1755V54.238H64.7776C65.6478 54.238 66.4824 53.8923 67.0978 53.277C67.7131 52.6616 68.0588 51.827 68.0588 50.9568C68.0588 50.0865 67.7131 49.2519 67.0978 48.6366C66.4824 48.0212 65.6478 47.6755 64.7776 47.6755ZM64.7776 52.0505H61.4963C61.2063 52.0505 60.9281 52.1658 60.7229 52.3709C60.5178 52.576 60.4026 52.8542 60.4026 53.1443V65.1755C60.4026 65.4656 60.2874 65.7438 60.0822 65.9489C59.8771 66.1541 59.5989 66.2693 59.3088 66.2693C59.0188 66.2693 58.7406 66.1541 58.5354 65.9489C58.3303 65.7438 58.2151 65.4656 58.2151 65.1755V59.7068C58.2151 59.4167 58.0999 59.1385 57.8947 58.9334C57.6896 58.7283 57.4114 58.613 57.1213 58.613C56.8313 58.613 56.5531 58.7283 56.3479 58.9334C56.1428 59.1385 56.0276 59.4167 56.0276 59.7068V65.1755C56.0276 65.4656 55.9124 65.7438 55.7072 65.9489C55.5021 66.1541 55.2239 66.2693 54.9338 66.2693C54.6438 66.2693 54.3656 66.1541 54.1604 65.9489C53.9553 65.7438 53.8401 65.4656 53.8401 65.1755V53.1443C53.8401 52.8542 53.7249 52.576 53.5197 52.3709C53.3146 52.1658 53.0364 52.0505 52.7463 52.0505H49.4651C49.175 52.0505 48.8968 51.9353 48.6917 51.7302C48.4866 51.5251 48.3713 51.2469 48.3713 50.9568C48.3713 50.6667 48.4866 50.3885 48.6917 50.1834C48.8968 49.9783 49.175 49.863 49.4651 49.863H64.7776C65.0677 49.863 65.3459 49.9783 65.551 50.1834C65.7561 50.3885 65.8713 50.6667 65.8713 50.9568C65.8713 51.2469 65.7561 51.5251 65.551 51.7302C65.3459 51.9353 65.0677 52.0505 64.7776 52.0505Z" fill="#063A41"/>
<path d="M17.7463 42.2068C17.7463 41.3415 17.4898 40.4956 17.009 39.7762C16.5283 39.0567 15.845 38.4959 15.0456 38.1648C14.2462 37.8337 13.3665 37.747 12.5178 37.9159C11.6692 38.0847 10.8896 38.5013 10.2777 39.1132C9.66589 39.7251 9.24921 40.5046 9.0804 41.3533C8.91159 42.2019 8.99823 43.0816 9.32937 43.881C9.6605 44.6805 10.2213 45.3637 10.9407 45.8445C11.6602 46.3252 12.506 46.5818 13.3713 46.5818C14.5317 46.5818 15.6445 46.1209 16.4649 45.3004C17.2854 44.4799 17.7463 43.3671 17.7463 42.2068ZM11.1838 42.2068C11.1838 41.7741 11.3121 41.3512 11.5525 40.9915C11.7929 40.6317 12.1345 40.3514 12.5342 40.1858C12.9339 40.0202 13.3738 39.9769 13.7981 40.0613C14.2224 40.1457 14.6122 40.3541 14.9181 40.66C15.2241 40.9659 15.4324 41.3557 15.5168 41.78C15.6012 42.2044 15.5579 42.6442 15.3923 43.0439C15.2268 43.4436 14.9464 43.7853 14.5867 44.0256C14.2269 44.266 13.804 44.3943 13.3713 44.3943C12.7912 44.3943 12.2348 44.1638 11.8245 43.7536C11.4143 43.3434 11.1838 42.787 11.1838 42.2068Z" fill="#063A41"/>
<path d="M21.0276 47.6755H5.71509C4.84485 47.6755 4.01025 48.0212 3.39489 48.6366C2.77954 49.2519 2.43384 50.0865 2.43384 50.9568C2.43384 51.827 2.77954 52.6616 3.39489 53.277C4.01025 53.8923 4.84485 54.238 5.71509 54.238H7.90259V65.1755C7.90259 66.0458 8.24829 66.8804 8.86364 67.4957C9.479 68.1111 10.3136 68.4568 11.1838 68.4568C11.9918 68.455 12.7707 68.1551 13.3713 67.6146C13.9719 68.1551 14.7508 68.455 15.5588 68.4568C16.4291 68.4568 17.2637 68.1111 17.879 67.4957C18.4944 66.8804 18.8401 66.0458 18.8401 65.1755V54.238H21.0276C21.8978 54.238 22.7324 53.8923 23.3478 53.277C23.9631 52.6616 24.3088 51.827 24.3088 50.9568C24.3088 50.0865 23.9631 49.2519 23.3478 48.6366C22.7324 48.0212 21.8978 47.6755 21.0276 47.6755ZM21.0276 52.0505H17.7463C17.4563 52.0505 17.1781 52.1658 16.9729 52.3709C16.7678 52.576 16.6526 52.8542 16.6526 53.1443V65.1755C16.6526 65.4656 16.5374 65.7438 16.3322 65.9489C16.1271 66.1541 15.8489 66.2693 15.5588 66.2693C15.2688 66.2693 14.9906 66.1541 14.7854 65.9489C14.5803 65.7438 14.4651 65.4656 14.4651 65.1755V59.7068C14.4651 59.4167 14.3499 59.1385 14.1447 58.9334C13.9396 58.7283 13.6614 58.613 13.3713 58.613C13.0813 58.613 12.8031 58.7283 12.5979 58.9334C12.3928 59.1385 12.2776 59.4167 12.2776 59.7068V65.1755C12.2776 65.4656 12.1624 65.7438 11.9572 65.9489C11.7521 66.1541 11.4739 66.2693 11.1838 66.2693C10.8938 66.2693 10.6156 66.1541 10.4104 65.9489C10.2053 65.7438 10.0901 65.4656 10.0901 65.1755V53.1443C10.0901 52.8542 9.97485 52.576 9.76974 52.3709C9.56462 52.1658 9.28642 52.0505 8.99634 52.0505H5.71509C5.42501 52.0505 5.14681 51.9353 4.94169 51.7302C4.73657 51.5251 4.62134 51.2469 4.62134 50.9568C4.62134 50.6667 4.73657 50.3885 4.94169 50.1834C5.14681 49.9783 5.42501 49.863 5.71509 49.863H21.0276C21.3177 49.863 21.5959 49.9783 21.801 50.1834C22.0061 50.3885 22.1213 50.6667 22.1213 50.9568C22.1213 51.2469 22.0061 51.5251 21.801 51.7302C21.5959 51.9353 21.3177 52.0505 21.0276 52.0505Z" fill="#063A41"/>
</svg>
