<svg width="83" height="83" viewBox="0 0 83 83" fill="none" xmlns="http://www.w3.org/2000/svg">
<g clip-path="url(#clip0_114_188)">
<path d="M78.2253 52.8301H47.4753V68.2051H78.2253V52.8301Z" fill="#0DB8BC"/>
<path d="M66.5762 42.4968C61.2065 39.1809 54.0533 39.2168 48.7182 42.5993C48.4171 31.9034 46.2274 21.2037 42.3401 16.1389C55.3076 18.4195 65.3859 29.1897 66.5762 42.4968Z" fill="white"/>
<path d="M7.87445 42.4968C9.06473 29.191 19.143 18.4208 32.1106 16.1389C28.2233 21.2037 26.0336 31.9034 25.7325 42.5993C20.3974 39.2142 13.2442 39.1796 7.87445 42.4968Z" fill="white"/>
<path d="M28.3001 42.5583C28.7421 26.5926 33.1983 15.6738 37.2253 15.6738C41.2523 15.6738 45.7085 26.5926 46.1505 42.5583C43.8404 41.1118 41.1997 40.2866 38.5065 40.0893V40.0176H35.944V40.0893C33.2521 40.2866 30.6102 41.1118 28.3001 42.5583Z" fill="white"/>
<path d="M67.9753 45.1426C65.1053 42.5416 61.3257 41.2604 57.5588 41.2988C56.3032 26.1288 47.6803 14.3926 37.2253 14.3926C54.2019 14.3926 67.9753 28.166 67.9753 45.1426Z" fill="#E4E2D8"/>
<path d="M37.2253 14.3926C31.5622 14.3926 26.9753 28.166 26.9753 45.1426C24.1822 42.6185 20.5563 41.3373 16.8919 41.2988C18.1475 26.1288 26.7703 14.3926 37.2253 14.3926Z" fill="#E4E2D8"/>
<path d="M47.4753 45.1426C44.6438 42.5801 40.941 41.2988 37.2253 41.2988V14.3926C42.8885 14.3926 47.4753 28.166 47.4753 45.1426Z" fill="#E4E2D8"/>
<path d="M21.8503 63.0801C25.3884 63.0801 28.2566 60.2119 28.2566 56.6738C28.2566 53.1358 25.3884 50.2676 21.8503 50.2676C18.3123 50.2676 15.4441 53.1358 15.4441 56.6738C15.4441 60.2119 18.3123 63.0801 21.8503 63.0801Z" fill="#FBD044"/>
<path d="M7.75659 70.7676C10.5871 70.7676 12.8816 68.473 12.8816 65.6426C12.8816 62.8121 10.5871 60.5176 7.75659 60.5176C4.92613 60.5176 2.63159 62.8121 2.63159 65.6426C2.63159 68.473 4.92613 70.7676 7.75659 70.7676Z" fill="#FBD044"/>
<path d="M19.2878 79.7363C21.4107 79.7363 23.1316 78.0154 23.1316 75.8926C23.1316 73.7697 21.4107 72.0488 19.2878 72.0488C17.165 72.0488 15.4441 73.7697 15.4441 75.8926C15.4441 78.0154 17.165 79.7363 19.2878 79.7363Z" fill="#FBD044"/>
<path d="M73.1003 59.2363H70.5378V61.7988H73.1003V59.2363Z" fill="white"/>
<path d="M55.1628 59.2363H52.6003V61.7988H55.1628V59.2363Z" fill="white"/>
<path d="M67.9753 6.70508H65.4128V22.0801H67.9753V6.70508Z" fill="#004E50"/>
<path d="M9.03784 6.70508H6.47534V22.0801H9.03784V6.70508Z" fill="#004E50"/>
<path d="M16.7253 0.298828H14.1628V13.1113H16.7253V0.298828Z" fill="#004E50"/>
<path d="M60.2878 9.26758H57.7253V15.6738H60.2878V9.26758Z" fill="#004E50"/>
<path d="M32.1003 1.58008H29.5378V6.70508H32.1003V1.58008Z" fill="#004E50"/>
<path d="M24.4128 5.42383H21.8503V11.8301H24.4128V5.42383Z" fill="#004E50"/>
<path d="M52.6003 1.58008H50.0378V10.5488H52.6003V1.58008Z" fill="#004E50"/>
<path d="M46.1941 75.8926C46.1941 78.0118 44.4695 79.7363 42.3503 79.7363C40.2312 79.7363 38.5066 78.0118 38.5066 75.8926V42.6326C41.4535 42.8889 44.3235 44.0343 46.5823 46.0638L47.3857 46.9517L47.4753 46.8697L47.565 46.9517L48.3684 46.0638C53.5497 41.4065 61.9471 41.4141 67.1156 46.092L69.2566 48.0305V45.1426C69.2566 27.9098 55.5767 13.8199 38.5066 13.1434V9.26758H35.9441V13.1434C18.874 13.8199 5.19409 27.9098 5.19409 45.1426V48.0305L7.33506 46.092C12.5023 41.4154 20.9009 41.4065 26.0823 46.0638L26.8857 46.9517L26.9753 46.8697L27.065 46.9517L27.8684 46.0638C30.1272 44.0343 32.9972 42.8889 35.9441 42.6326V75.8926C35.9441 79.425 38.8179 82.2988 42.3503 82.2988C45.8827 82.2988 48.7566 79.425 48.7566 75.8926V74.6113H46.1941V75.8926ZM66.5762 42.4968C61.2065 39.1809 54.0533 39.2168 48.7182 42.5993C48.4171 31.9034 46.2274 21.2037 42.3401 16.1389C55.3076 18.4195 65.3859 29.1897 66.5762 42.4968ZM7.87447 42.4968C9.06475 29.191 19.1431 18.4208 32.1106 16.1389C28.2233 21.2037 26.0336 31.9034 25.7325 42.5993C20.3974 39.2142 13.2442 39.1796 7.87447 42.4968ZM28.3002 42.5583C28.7422 26.5926 33.1984 15.6738 37.2253 15.6738C41.2523 15.6738 45.7085 26.5926 46.1505 42.5583C43.8404 41.1118 41.1998 40.2866 38.5066 40.0893V40.0176H35.9441V40.0893C33.2522 40.2866 30.6102 41.1118 28.3002 42.5583Z" fill="#004E50"/>
<path d="M62.8503 55.3926C60.0239 55.3926 57.7253 57.6911 57.7253 60.5176C57.7253 63.344 60.0239 65.6426 62.8503 65.6426C65.6768 65.6426 67.9753 63.344 67.9753 60.5176C67.9753 57.6911 65.6768 55.3926 62.8503 55.3926ZM62.8503 63.0801C61.4371 63.0801 60.2878 61.9308 60.2878 60.5176C60.2878 59.1044 61.4371 57.9551 62.8503 57.9551C64.2636 57.9551 65.4128 59.1044 65.4128 60.5176C65.4128 61.9308 64.2636 63.0801 62.8503 63.0801Z" fill="#004E50"/>
<path d="M44.9128 50.2676V70.7676H80.7878V50.2676H44.9128ZM73.1721 67.7823L73.0247 68.2051H52.6836L52.5209 67.763C51.7662 65.7079 49.9072 63.854 47.8982 63.1505L47.4753 63.0045V58.0396L47.9174 57.8769C49.9738 57.121 51.8265 55.2632 52.5286 53.2542L52.6759 52.8301H73.0158L73.1785 53.2721C73.9332 55.3272 75.7922 57.1812 77.8012 57.8846L78.2253 58.0307V62.9955L77.7833 63.1582C75.7269 63.9142 73.8742 65.7733 73.1721 67.7823ZM78.2253 55.2824C77.2311 54.7955 76.2919 53.8538 75.7794 52.8301H78.2253V55.2824ZM49.9277 52.8301C49.4408 53.8243 48.4991 54.7635 47.4753 55.276V52.8301H49.9277ZM47.4753 65.7528C48.4696 66.2396 49.4087 67.1814 49.9212 68.2051H47.4753V65.7528ZM75.773 68.2051C76.2599 67.2108 77.2016 66.2717 78.2253 65.7592V68.2051H75.773Z" fill="#004E50"/>
<path d="M21.8503 48.9863C17.6107 48.9863 14.1628 52.4342 14.1628 56.6738C14.1628 60.9135 17.6107 64.3613 21.8503 64.3613C26.09 64.3613 29.5378 60.9135 29.5378 56.6738C29.5378 52.4342 26.09 48.9863 21.8503 48.9863ZM21.8503 61.7988C19.0239 61.7988 16.7253 59.5003 16.7253 56.6738C16.7253 53.8474 19.0239 51.5488 21.8503 51.5488C24.6768 51.5488 26.9753 53.8474 26.9753 56.6738C26.9753 59.5003 24.6768 61.7988 21.8503 61.7988Z" fill="#004E50"/>
<path d="M7.75659 59.2363C4.22419 59.2363 1.35034 62.1102 1.35034 65.6426C1.35034 69.175 4.22419 72.0488 7.75659 72.0488C11.289 72.0488 14.1628 69.175 14.1628 65.6426C14.1628 62.1102 11.289 59.2363 7.75659 59.2363ZM7.75659 69.4863C5.6374 69.4863 3.91284 67.7618 3.91284 65.6426C3.91284 63.5234 5.6374 61.7988 7.75659 61.7988C9.87578 61.7988 11.6003 63.5234 11.6003 65.6426C11.6003 67.7618 9.87578 69.4863 7.75659 69.4863Z" fill="#004E50"/>
<path d="M19.2878 70.7676C16.4614 70.7676 14.1628 73.0661 14.1628 75.8926C14.1628 78.719 16.4614 81.0176 19.2878 81.0176C22.1143 81.0176 24.4128 78.719 24.4128 75.8926C24.4128 73.0661 22.1143 70.7676 19.2878 70.7676ZM19.2878 78.4551C17.8746 78.4551 16.7253 77.3058 16.7253 75.8926C16.7253 74.4794 17.8746 73.3301 19.2878 73.3301C20.7011 73.3301 21.8503 74.4794 21.8503 75.8926C21.8503 77.3058 20.7011 78.4551 19.2878 78.4551Z" fill="#004E50"/>
<path d="M62.8503 63.0801C64.2656 63.0801 65.4128 61.9328 65.4128 60.5176C65.4128 59.1023 64.2656 57.9551 62.8503 57.9551C61.4351 57.9551 60.2878 59.1023 60.2878 60.5176C60.2878 61.9328 61.4351 63.0801 62.8503 63.0801Z" fill="white"/>
</g>
<defs>
<clipPath id="clip0_114_188">
<rect width="82" height="82" fill="white" transform="translate(0.0690918 0.298828)"/>
</clipPath>
</defs>
</svg>
